<svg xmlns="http://www.w3.org/2000/svg" viewBox="0 0 788 788"><rect width="788" height="788" rx="141" fill="#F4EFE6"/><g transform="translate(394.0,394.0) scale(0.82) translate(-394.0,-394.0)">
<path d="M0 0 C0.665 0.363 1.33 0.726 2.015 1.1 C17.965 9.838 32.449 20.672 46.176 32.566 C48.661 34.708 51.179 36.776 53.75 38.812 C64.151 47.066 74.357 55.567 84.47 64.169 C87.761 66.965 91.086 69.715 94.438 72.438 C98.707 75.911 102.895 79.468 107.062 83.062 C110.988 86.448 114.931 89.786 119 93 C124.862 97.636 130.498 102.527 136.155 107.409 C139.243 110.072 142.341 112.723 145.438 115.375 C147.073 116.777 148.708 118.178 150.34 119.585 C151.525 120.595 152.722 121.593 153.926 122.581 C154.557 123.105 155.189 123.629 155.84 124.168 C156.417 124.64 156.995 125.112 157.59 125.598 C159 127 159 127 160.125 129.938 C159.962 133.934 158.784 136.432 157 140 C154.137 138.672 151.809 137.178 149.383 135.164 C148.7 134.6 148.018 134.037 147.315 133.456 C146.592 132.852 145.87 132.247 145.125 131.625 C144.373 131.001 143.62 130.377 142.845 129.734 C137.484 125.273 132.178 120.751 126.896 116.197 C121.675 111.701 116.353 107.338 111 103 C105.176 98.268 99.395 93.496 93.688 88.625 C88.55 84.243 83.283 80.056 77.95 75.915 C73.951 72.792 70.158 69.51 66.406 66.094 C63.36 63.443 60.19 60.975 57 58.5 C52.211 54.783 47.61 50.948 43.113 46.879 C39.213 43.411 35.122 40.2 31 37 C30.44 36.562 29.879 36.123 29.302 35.672 C0.557 13.279 -35.989 -9.051 -74 -7 C-74.33 -6.67 -74.66 -6.34 -75 -6 C-73.905 -5.501 -72.811 -5.001 -71.683 -4.487 C-67.609 -2.628 -63.538 -0.765 -59.467 1.098 C-57.707 1.903 -55.946 2.708 -54.185 3.51 C-51.65 4.667 -49.116 5.827 -46.582 6.988 C-46.19 7.166 -46.19 7.166 -44.208 8.068 C-36.136 11.776 -36.136 11.776 -33 14 C-31.756 17.732 -32.222 20.18 -33 24 C-33.33 24.165 -33.33 24.165 -35 25 C-36.973 24.247 -36.973 24.247 -39.418 23.008 C-40.331 22.554 -41.244 22.101 -42.184 21.633 C-42.68 21.384 -42.68 21.384 -45.188 20.125 C-98.378 -5.849 -98.378 -5.849 -120.625 1.188 C-126.017 4.083 -127.867 7.454 -130 13 C-129.051 13.184 -128.102 13.369 -127.125 13.559 C-81.757 22.986 -38.294 49.048 -2 77 C-1.354 77.495 -0.707 77.99 -0.041 78.5 C11.866 87.635 23.26 97.298 34.273 107.488 C38.724 111.588 43.206 115.618 48 119.312 C48.66 119.869 49.32 120.426 50 121 C50 121.66 50 122.32 50 123 C50.594 123.269 51.188 123.538 51.8 123.815 C54.009 125.005 55.437 126.193 57.199 127.965 C57.807 128.572 58.415 129.179 59.041 129.804 C59.697 130.468 60.353 131.133 61.028 131.817 C61.728 132.518 62.428 133.219 63.149 133.942 C65.463 136.262 67.771 138.59 70.078 140.918 C71.689 142.536 73.301 144.153 74.914 145.769 C79.163 150.032 83.406 154.3 87.648 158.569 C94.423 165.387 101.203 172.197 107.987 179.004 C110.349 181.377 112.708 183.752 115.066 186.128 C116.529 187.598 117.991 189.067 119.454 190.536 C120.102 191.19 120.749 191.844 121.416 192.519 C125.207 196.318 129.112 199.921 133.188 203.413 C136.136 205.995 138.876 208.772 141.625 211.562 C142.216 212.157 142.807 212.752 143.417 213.365 C145.906 215.871 148.389 218.383 150.873 220.894 C157.403 227.488 163.888 234.026 171 240 C172.181 241.033 173.359 242.068 174.535 243.105 C196.257 262.126 219.373 280.487 245 294 C243.334 292.478 241.667 290.958 240 289.438 C239.072 288.591 238.144 287.744 237.188 286.871 C235.575 285.405 233.953 283.96 232.295 282.546 C226.167 277.313 220.477 271.663 214.782 265.968 C213.075 264.262 211.359 262.565 209.643 260.867 C203.698 254.953 198.107 248.967 192.912 242.374 C190.997 239.996 188.975 237.778 186.875 235.562 C166.748 213.315 143.747 182.293 133 154 C135.461 152.769 137.258 152.794 140.008 152.684 C140.501 152.663 140.501 152.663 142.996 152.557 C144.029 152.517 145.061 152.478 146.125 152.438 C147.165 152.394 148.206 152.351 149.277 152.307 C151.851 152.2 154.426 152.098 157 152 C159.212 155.546 161.011 159.141 162.75 162.938 C165.424 168.291 167.93 171.817 173 175 C173.61 175.41 174.219 175.82 174.848 176.242 C182.78 180.674 193.332 180.246 202.004 178.34 C212.752 174.454 219.847 167.036 225 157 C228.219 148.958 228.31 139.706 225.5 131.5 C223.216 126.53 219.726 123.63 215 121 C211.527 119.842 208.639 119.931 205 120 C205.598 120.681 206.196 121.361 206.812 122.062 C211.852 128.829 212.997 134.67 212 143 C210.217 150.704 206.572 155.655 200 160 C194.174 163.381 188.486 163.714 182 162 C176.335 159.389 173.649 155.503 171 150 C168.487 142.461 169.185 134.749 172.562 127.625 C178.278 117.546 185.88 112.103 196.895 108.355 C210.382 106.078 222.887 108.8 234.422 116.094 C238.618 119.196 242.365 122.72 246.141 126.316 C246.612 126.759 246.612 126.759 249 129 C249.906 129.877 250.813 130.753 251.746 131.656 C255.117 134.427 257.537 134.495 261.92 134.181 C262.605 134.139 263.289 134.098 263.995 134.056 C266.322 133.91 268.644 133.726 270.969 133.543 C272.683 133.429 274.398 133.318 276.113 133.21 C279.955 132.963 283.796 132.702 287.636 132.432 C294.376 131.966 301.119 131.569 307.863 131.181 C310.341 131.038 312.819 130.895 315.297 130.752 C315.929 130.715 315.929 130.715 319.128 130.531 C325.852 130.14 332.576 129.737 339.299 129.334 C342.131 129.164 344.962 128.995 347.794 128.825 C348.506 128.783 349.218 128.74 349.951 128.696 C358.121 128.207 366.292 127.722 374.462 127.237 C375.991 127.146 377.52 127.056 379.049 126.965 C381.363 126.827 383.676 126.69 385.99 126.553 C394.623 126.04 403.256 125.527 411.89 125.013 C412.675 124.966 413.46 124.92 414.27 124.872 C427.042 124.112 439.815 123.348 452.588 122.583 C465.807 121.791 479.026 121.005 492.245 120.223 C500.345 119.744 508.445 119.261 516.545 118.772 C522.753 118.397 528.962 118.03 535.171 117.666 C537.693 117.517 540.215 117.365 542.737 117.211 C558.178 116.269 573.53 115.79 589 116 C588.04 117.131 587.079 118.26 586.117 119.388 C585.582 120.017 585.047 120.646 584.496 121.294 C575.545 131.499 560.978 135.601 548.488 139.617 C547.21 140.035 545.931 140.453 544.653 140.872 C541.249 141.985 537.841 143.088 534.433 144.189 C531.564 145.117 528.696 146.052 525.829 146.987 C506.118 153.412 486.378 159.746 466.624 166.036 C451.843 170.747 437.095 175.556 422.357 180.399 C415.061 182.796 407.762 185.184 400.464 187.572 C394.746 189.444 389.029 191.319 383.315 193.204 C378.164 194.902 373.008 196.586 367.848 198.26 C365.977 198.869 364.106 199.484 362.238 200.105 C340.299 207.383 340.299 207.383 330.422 202.48 C328.519 201.404 326.628 200.306 324.75 199.188 C322.849 198.097 320.948 197.007 319.047 195.918 C318.61 195.663 318.61 195.663 316.396 194.373 C313.645 192.796 310.86 191.368 308 190 C308.641 190.629 309.281 191.258 309.941 191.906 C324.014 205.832 324.014 205.832 327 212 C304.554 219.968 282.059 227.757 259.434 235.203 C255.837 236.387 252.252 237.602 248.672 238.836 C245 240 245 240 242 240 C242.422 240.482 242.843 240.964 243.277 241.461 C243.825 242.093 244.373 242.724 244.938 243.375 C245.483 244.001 246.028 244.628 246.59 245.273 C248.862 248.055 249.137 249.791 249.125 253.312 C249.124 253.715 249.124 253.715 249.117 255.75 C249 258 249 258 248.25 260.812 C248.168 261.534 248.085 262.256 248 263 C249.844 265.29 251.374 266.687 254 268 C254.103 266.928 254.206 265.855 254.312 264.75 C254.974 261.142 255.575 259.636 258 257 C262.875 258.75 262.875 258.75 264 261 C264.326 266.429 263.453 270.825 262 276 C262.619 276.309 263.238 276.619 263.875 276.938 C265.25 277.625 266.625 278.312 268 279 C268.17 278.374 268.34 277.747 268.516 277.102 C268.758 276.284 269 275.467 269.25 274.625 C269.482 273.813 269.714 273.001 269.953 272.164 C271.221 269.542 272.324 269.006 275 268 C277 269.5 277 269.5 279 272 C279.422 277.15 278.847 281.92 278 287 C279.98 288.32 281.96 289.64 284 291 C284.031 290.557 284.031 290.557 284.188 288.312 C285.182 284.259 286.901 282.702 290 280 C292 281.562 292 281.562 294 284 C294.36 287.815 294.013 290.934 293.25 294.688 C293 298 293 298 294.75 300.375 C297 302 297 302 300 303 C299.897 302.113 299.794 301.226 299.688 300.312 C300.095 295.993 301.772 294.744 305 292 C307.497 293.645 308.639 294.398 310 297 C309.898 300.051 309.898 300.051 309.438 303.5 C308.677 309.495 308.677 309.495 310.25 311.957 C311.938 313.312 311.938 313.312 315 315 C315.144 313.721 315.289 312.442 315.438 311.125 C315.706 308.743 315.922 307.155 317 305 C319.875 304.875 319.875 304.875 323 305 C325 307 325 307 325.188 310.125 C325.048 313.007 324.73 315.398 324.188 318.188 C324.126 319.446 324.064 320.704 324 322 C326.438 324.5 326.438 324.5 329 326 C331.019 322.689 332 320.539 332 316.625 C329.678 308.209 324.605 303.371 318 298 C316.452 296.684 314.903 295.368 313.358 294.049 C308.825 290.185 304.252 286.376 299.625 282.625 C294.506 278.461 289.532 274.145 284.561 269.808 C279.954 265.8 275.265 261.92 270.52 258.078 C266.581 254.829 262.783 251.428 259 248 C261.005 245.995 262.224 245.327 264.812 244.312 C265.479 244.041 266.145 243.769 266.832 243.488 C269.636 242.857 271.262 243.114 274 244 C276.508 245.715 276.508 245.715 279.125 247.938 C279.606 248.344 279.606 248.344 282.039 250.402 C285.826 253.725 289.543 257.119 293.25 260.531 C295.937 262.944 298.69 265.233 301.5 267.5 C306.256 271.337 310.755 275.394 315.25 279.531 C317.937 281.944 320.69 284.233 323.5 286.5 C327.285 289.553 330.922 292.707 334.5 296 C338.89 300.036 343.412 303.84 348.051 307.586 C351.414 310.339 354.709 313.162 358 316 C363.017 320.323 368.092 324.558 373.234 328.73 C375.741 330.788 378.215 332.876 380.681 334.982 C386.209 339.702 391.825 344.273 397.562 348.736 C402.056 352.237 406.471 355.825 410.875 359.438 C416.841 364.319 422.924 369.007 429.114 373.601 C434.862 377.872 440.496 382.277 446.109 386.723 C447.838 388.084 449.591 389.417 451.391 390.684 C451.922 391.118 452.453 391.552 453 392 C453 392.66 453 393.32 453 394 C436.568 394.593 421.144 393.045 405 390 C403.743 389.764 402.486 389.528 401.19 389.285 C308.484 371.628 215.767 331.492 131 270 C129.611 268.971 128.221 267.943 126.832 266.914 C115.209 258.28 103.81 249.373 92.633 240.168 C90.883 238.727 89.128 237.292 87.367 235.863 C82.155 231.631 77.022 227.321 71.938 222.938 C67.174 218.832 62.355 214.823 57.422 210.922 C52.903 207.336 48.46 203.658 44 200 C42.292 198.604 40.583 197.208 38.875 195.812 C34.903 192.564 30.94 189.303 26.981 186.038 C15.505 176.575 3.986 167.164 -7.645 157.891 C-10.277 155.777 -12.89 153.641 -15.5 151.5 C-19.716 148.043 -23.956 144.618 -28.219 141.219 C-30.304 139.555 -32.388 137.888 -34.469 136.219 C-35.729 135.208 -36.99 134.198 -38.25 133.188 C-38.89 132.675 -39.529 132.162 -40.188 131.634 C-43.305 129.139 -46.43 126.657 -49.582 124.207 C-57.939 117.711 -66.02 110.953 -74 104 C-74.761 103.341 -75.521 102.683 -76.305 102.004 C-78.212 100.346 -80.107 98.674 -82 97 C-82.359 96.687 -82.359 96.687 -84.176 95.105 C-89.522 90.389 -94.637 85.467 -99.688 80.438 C-99.996 80.131 -99.996 80.131 -101.559 78.58 C-117.747 62.338 -140.563 37.601 -141.312 13.375 C-141.193 6.596 -139.533 1.001 -135.117 -4.23 C-101.966 -35.896 -34.874 -19.555 0 0 Z M188 198 C198.272 209.266 213.065 215.278 228.169 216.121 C239.811 216.595 250.665 215.66 262 213 C262 212.67 262 212.34 262 212 C261.307 211.985 260.613 211.971 259.899 211.956 C235.725 211.39 214.504 208.768 192.258 198.918 C190 198 190 198 188 198 Z " fill="#E84E1C" transform="translate(170,207)"/>
<path d="M0 0 C0.928 0.804 1.856 1.609 2.812 2.438 C5.89 5.083 9.028 7.641 12.188 10.188 C16.795 13.938 21.172 17.869 25.518 21.913 C28.751 24.904 32.067 27.737 35.5 30.5 C40.019 34.136 44.28 37.968 48.522 41.916 C51.733 44.887 55.026 47.7 58.438 50.438 C66.367 56.823 73.821 63.785 81 71 C73.897 75.323 66.703 79.456 59.438 83.5 C57.245 84.722 55.052 85.945 52.859 87.168 C51.737 87.794 50.615 88.419 49.459 89.064 C45.951 91.028 42.451 93.006 38.953 94.988 C37.819 95.629 36.686 96.27 35.518 96.93 C33.334 98.164 31.152 99.403 28.972 100.645 C27.985 101.201 26.998 101.758 25.98 102.332 C25.113 102.824 24.246 103.316 23.352 103.823 C7.528 111.738 -17.902 105.507 -34.062 100.312 C-53.539 93.641 -73.961 82.787 -83.938 63.875 C-88.97 52.733 -89.242 42.888 -85.32 31.246 C-81.209 21.139 -75.262 13.303 -65.191 8.723 C-52.143 3.748 -40.084 3.672 -27.188 9.207 C-20.558 12.397 -20.558 12.397 -18.469 14.656 C-17 16 -17 16 -13 16 C-12.786 15.469 -12.572 14.938 -12.352 14.391 C-10.487 11.092 -7.958 8.49 -5.375 5.75 C-4.859 5.196 -4.344 4.641 -3.812 4.07 C-2.546 2.71 -1.273 1.354 0 0 Z M-45 16 C-44.554 18.6 -44.05 20.885 -43 23.312 C-40.626 29.691 -40.576 34.551 -43 40.828 C-45.905 47.137 -48.939 50.783 -55.535 53.352 C-61.956 55.041 -68.548 54.122 -75 53 C-74.465 57.551 -72.823 60.414 -70 64 C-63.199 69.135 -57.36 69.99 -49 69 C-39.931 66.178 -33.897 61.064 -29 53 C-25.339 45.939 -24.497 37.343 -26.656 29.668 C-28.879 24.658 -32.322 20.85 -37 18 C-39.696 17.018 -42.156 16.499 -45 16 Z " fill="#171514" transform="translate(176,387)"/>
<path d="M0 0 C6.264 2.152 12.23 4.803 18.223 7.617 C13.185 22.367 7.712 36.915 2.035 51.43 C0.352 55.742 -1.33 60.055 -3.012 64.367 C-3.423 65.42 -3.834 66.472 -4.257 67.557 C-6.721 73.876 -9.15 80.208 -11.543 86.555 C-12.093 88.007 -12.644 89.459 -13.195 90.911 C-13.947 92.894 -14.696 94.878 -15.433 96.867 C-16.089 98.638 -16.759 100.403 -17.43 102.168 C-17.61 102.651 -17.61 102.651 -18.523 105.095 C-19.926 107.916 -21.35 109.617 -23.777 111.617 C-26.438 112.234 -28.774 112.631 -31.465 112.867 C-32.183 112.936 -32.901 113.004 -33.641 113.075 C-35.686 113.263 -37.732 113.44 -39.777 113.617 C-40.656 113.772 -41.536 113.927 -42.441 114.086 C-46.372 114.6 -48.142 114.087 -51.375 111.699 C-53.273 109.977 -55.132 108.21 -56.953 106.406 C-59.634 103.758 -62.397 101.404 -65.34 99.055 C-69.903 95.374 -74.271 91.529 -78.586 87.562 C-80.581 85.792 -82.619 84.181 -84.777 82.617 C-83.111 78.283 -79.902 75.484 -76.652 72.305 C-76.108 71.761 -75.564 71.218 -75.004 70.658 C-72.22 67.904 -69.385 65.265 -66.393 62.739 C-60.75 57.817 -55.525 52.476 -50.251 47.166 C-48.345 45.248 -46.436 43.332 -44.526 41.417 C-40.482 37.362 -36.442 33.302 -32.402 29.242 C-27.698 24.514 -22.992 19.788 -18.282 15.066 C-16.4 13.177 -14.521 11.286 -12.642 9.394 C-11.495 8.244 -10.349 7.094 -9.202 5.944 C-8.679 5.416 -8.156 4.888 -7.618 4.345 C-2.694 -0.58 -2.694 -0.58 0 0 Z " fill="#171514" transform="translate(604.77734375,417.3828125)"/>
<path d="M0 0 C0.681 0.409 1.361 0.817 2.062 1.239 C3.419 2.056 4.771 2.881 6.117 3.716 C8.709 5.311 11.359 6.801 14 8.312 C16.375 9.684 16.375 9.684 18 10.875 C18 11.535 18 12.195 18 12.875 C14.43 13.817 10.859 14.758 7.289 15.699 C6.158 15.997 5.028 16.295 3.863 16.603 C-2.462 18.269 -8.787 19.934 -15.113 21.594 C-17.083 22.111 -19.054 22.628 -21.024 23.145 C-22.358 23.495 -23.691 23.845 -25.024 24.195 C-33.396 26.392 -41.762 28.609 -50.122 30.85 C-54.702 32.077 -59.285 33.293 -63.869 34.508 C-66.031 35.084 -68.192 35.664 -70.352 36.25 C-73.359 37.064 -76.37 37.862 -79.383 38.656 C-79.821 38.777 -79.821 38.777 -82.039 39.389 C-87.63 40.84 -92.691 41.713 -98.01 38.759 C-98.541 38.296 -99.073 37.833 -99.621 37.355 C-100.238 36.834 -100.856 36.312 -101.492 35.774 C-102.134 35.209 -102.776 34.644 -103.438 34.062 C-104.841 32.874 -106.248 31.687 -107.656 30.504 C-108.372 29.899 -109.087 29.295 -109.824 28.672 C-113.271 25.825 -116.845 23.16 -120.438 20.5 C-121.759 19.517 -123.081 18.534 -124.402 17.551 C-125.016 17.095 -125.629 16.64 -126.261 16.17 C-128.689 14.362 -131.099 12.532 -133.5 10.688 C-133.845 10.423 -133.845 10.423 -135.594 9.082 C-136.058 8.684 -136.522 8.285 -137 7.875 C-137 7.545 -137 7.215 -137 6.875 C-114.679 4.019 -92.271 2.143 -69.854 0.231 C-64.519 -0.224 -59.185 -0.687 -53.851 -1.151 C-49.698 -1.512 -45.543 -1.869 -41.389 -2.224 C-39.421 -2.393 -37.454 -2.564 -35.486 -2.735 C-32.744 -2.974 -30.002 -3.207 -27.26 -3.438 C-26.467 -3.508 -25.674 -3.578 -24.857 -3.651 C-7.967 -5.053 -7.967 -5.053 0 0 Z " fill="#171514" transform="translate(708,535.125)"/>
<path d="M0 0 C3.542 0.789 5.857 2.079 8.875 4.125 C31.493 18.773 54.653 22.335 81 23 C77.449 26.005 73.44 27.711 69.203 29.52 C68.43 29.855 67.657 30.19 66.861 30.535 C64.326 31.632 61.788 32.722 59.25 33.812 C57.479 34.578 55.708 35.344 53.938 36.11 C50.342 37.667 46.745 39.221 43.147 40.774 C36.547 43.625 29.962 46.51 23.379 49.398 C12.077 54.356 0.762 59.282 -10.562 64.188 C-11.197 64.462 -11.831 64.737 -12.485 65.02 C-15.37 66.27 -18.256 67.518 -21.145 68.759 C-22.842 69.497 -24.533 70.247 -26.21 71.026 C-29.596 72.586 -32.27 73.7 -36 73 C-38.238 71.25 -38.238 71.25 -40.312 69 C-41.01 68.257 -41.707 67.515 -42.426 66.75 C-42.945 66.173 -43.465 65.595 -44 65 C-41.437 60.01 -38.627 55.362 -35.285 50.852 C-31.249 45.355 -27.324 39.79 -23.438 34.188 C-23.099 33.701 -23.099 33.701 -21.387 31.236 C-14.194 20.868 -7.087 10.441 0 0 Z " fill="#171514" transform="translate(101,477)"/>
<path d="M0 0 C1.277 0.57 2.546 1.157 3.812 1.75 C4.52 2.075 5.228 2.4 5.957 2.734 C8.502 4.311 9.603 5.323 11 8 C11.386 10.905 11.329 13.762 11.25 16.688 C11.239 17.492 11.228 18.296 11.217 19.125 C11.117 24.467 10.784 29.71 10 35 C6.314 35 5.283 34.063 2.375 31.875 C1.578 31.295 0.782 30.715 -0.039 30.117 C-2.629 27.321 -2.806 25.802 -3 22 C-2.844 18.752 -2.505 15.541 -2.125 12.312 C-2.033 11.458 -1.942 10.604 -1.848 9.725 C-1.466 6.302 -1.093 3.28 0 0 Z " fill="#171514" transform="translate(180,236)"/>
<path d="M0 0 C4.566 1.442 4.566 1.442 6.312 3.688 C7.519 7.746 7.615 11.502 6 15.438 C5.67 15.953 5.34 16.469 5 17 C2.75 17.312 2.75 17.312 0 17 C-2.438 15.125 -2.438 15.125 -4 12 C-3.766 7.484 -3.261 3.261 0 0 Z " fill="#171514" transform="translate(229,276)"/>
<path d="M0 0 C2.924 0.325 4.892 0.937 7.438 2.438 C9.689 6.129 8.707 8.674 7.773 12.758 C7 15 7 15 5 17 C2.409 16.833 1.219 16.188 -0.75 14.5 C-2.604 10.791 -2.578 7.077 -2 3 C-1.34 2.01 -0.68 1.02 0 0 Z " fill="#171514" transform="translate(211,263)"/>
<path d="M0 0 C2.438 0.125 2.438 0.125 5 1 C6.791 3.492 7.078 5.225 6.773 8.262 C6.325 10.623 5.899 12.769 5 15 C4.01 15.66 3.02 16.32 2 17 C-0.438 15.875 -0.438 15.875 -3 14 C-4.374 10.223 -4.125 7.803 -2.625 4.188 C-1 1 -1 1 0 0 Z " fill="#171514" transform="translate(245,290)"/>
<path d="M0 0 C2.375 0.625 2.375 0.625 5 2 C6.98 5.702 7.073 7.603 6.312 11.75 C5 15 5 15 2 17 C-0.5 16 -0.5 16 -3 14 C-3.557 9.066 -3.307 5.478 -1 1 C-0.67 0.67 -0.34 0.34 0 0 Z " fill="#171514" transform="translate(275,314)"/>
<path d="M0 0 C2.711 0.856 4.554 1.452 6.375 3.688 C7.279 7.034 6.732 9.644 6 13 C5.67 13.495 5.67 13.495 4 16 C-0.875 15.125 -0.875 15.125 -2 14 C-2.125 12.024 -2.176 10.043 -2.188 8.062 C-2.202 6.981 -2.216 5.899 -2.23 4.785 C-2 2 -2 2 0 0 Z " fill="#171514" transform="translate(260,302)"/>
<path d="M0 0 C2.878 1.29 5.058 2.483 7 5 C6.926 7.191 6.926 7.191 6.312 9.562 C6.123 10.348 5.934 11.133 5.738 11.941 C5 14 5 14 3 16 C0.065 15.633 -0.864 15.136 -3 13 C-3.504 7.754 -2.65 4.526 0 0 Z " fill="#171514" transform="translate(290,327)"/>
<path d="M0 0 C2.5 0.188 2.5 0.188 5 1 C7 4 7 4 6.625 6.688 C6.419 7.451 6.212 8.214 6 9 C3.36 9 0.72 9 -2 9 C-2.125 5.625 -2.125 5.625 -2 2 C-1.34 1.34 -0.68 0.68 0 0 Z " fill="#171514" transform="translate(304,340)"/>
</g></svg>