<?xml version="1.0" encoding="UTF-8" standalone="no"?>
<svg
   viewBox="26 108 1911 304"
   role="img"
   aria-label="GoTools"
   version="1.1"
   id="svg15"
   sodipodi:docname="download.svg"
   inkscape:version="1.4.2 (f4327f4, 2025-05-13)"
   xmlns:inkscape="http://www.inkscape.org/namespaces/inkscape"
   xmlns:sodipodi="http://sodipodi.sourceforge.net/DTD/sodipodi-0.dtd"
   xmlns="http://www.w3.org/2000/svg"
   xmlns:svg="http://www.w3.org/2000/svg">
  <defs
     id="defs15" />
  <sodipodi:namedview
     id="namedview15"
     pagecolor="#ffffff"
     bordercolor="#000000"
     borderopacity="0.25"
     inkscape:showpageshadow="2"
     inkscape:pageopacity="0.0"
     inkscape:pagecheckerboard="0"
     inkscape:deskcolor="#d1d1d1"
     showguides="true"
     inkscape:zoom="1"
     inkscape:cx="955"
     inkscape:cy="152"
     inkscape:window-width="2560"
     inkscape:window-height="1369"
     inkscape:window-x="-8"
     inkscape:window-y="-8"
     inkscape:window-maximized="1"
     inkscape:current-layer="svg15">
    <sodipodi:guide
       position="651,31"
       orientation="0,-1"
       id="guide17"
       inkscape:locked="false" />
  </sodipodi:namedview>
  <g
     transform="matrix(0.6599,0,0,0.6599,518,12)"
     id="g14">
    <g
       transform="matrix(0.82,0,0,0.82,70.92,70.92)"
       id="g13">
      <path
         d="m 0,0 c 0.665,0.363 1.33,0.726 2.015,1.1 15.95,8.738 30.434,19.572 44.161,31.466 2.485,2.142 5.003,4.21 7.574,6.246 10.401,8.254 20.607,16.755 30.72,25.357 3.291,2.796 6.616,5.546 9.968,8.269 4.269,3.473 8.457,7.03 12.624,10.624 3.926,3.386 7.869,6.724 11.938,9.938 5.862,4.636 11.498,9.527 17.155,14.409 3.088,2.663 6.186,5.314 9.283,7.966 1.635,1.402 3.27,2.803 4.902,4.21 1.185,1.01 2.382,2.008 3.586,2.996 0.631,0.524 1.263,1.048 1.914,1.587 0.577,0.472 1.155,0.944 1.75,1.43 1.41,1.402 1.41,1.402 2.535,4.34 -0.163,3.996 -1.341,6.494 -3.125,10.062 -2.863,-1.328 -5.191,-2.822 -7.617,-4.836 -0.683,-0.564 -1.365,-1.127 -2.068,-1.708 -0.723,-0.604 -1.445,-1.209 -2.19,-1.831 -0.752,-0.624 -1.505,-1.248 -2.28,-1.891 -5.361,-4.461 -10.667,-8.983 -15.949,-13.537 C 121.675,111.701 116.353,107.338 111,103 105.176,98.268 99.395,93.496 93.688,88.625 88.55,84.243 83.283,80.056 77.95,75.915 73.951,72.792 70.158,69.51 66.406,66.094 63.36,63.443 60.19,60.975 57,58.5 52.211,54.783 47.61,50.948 43.113,46.879 39.213,43.411 35.122,40.2 31,37 30.44,36.562 29.879,36.123 29.302,35.672 0.557,13.279 -35.989,-9.051 -74,-7 c -0.33,0.33 -0.66,0.66 -1,1 1.095,0.499 2.189,0.999 3.317,1.513 4.074,1.859 8.145,3.722 12.216,5.585 1.76,0.805 3.521,1.61 5.282,2.412 2.535,1.157 5.069,2.317 7.603,3.478 0.392,0.178 0.392,0.178 2.374,1.08 8.072,3.708 8.072,3.708 11.208,5.932 1.244,3.732 0.778,6.18 0,10 -0.33,0.165 -0.33,0.165 -2,1 -1.973,-0.753 -1.973,-0.753 -4.418,-1.992 -0.913,-0.454 -1.826,-0.907 -2.766,-1.375 -0.496,-0.249 -0.496,-0.249 -3.004,-1.508 -53.19,-25.974 -53.19,-25.974 -75.437,-18.937 -5.392,2.895 -7.242,6.266 -9.375,11.812 0.949,0.184 1.898,0.369 2.875,0.559 C -81.757,22.986 -38.294,49.048 -2,77 c 0.646,0.495 1.293,0.99 1.959,1.5 11.907,9.135 23.301,18.798 34.314,28.988 4.451,4.1 8.933,8.13 13.727,11.824 0.66,0.557 1.32,1.114 2,1.688 0,0.66 0,1.32 0,2 0.594,0.269 1.188,0.538 1.8,0.815 2.209,1.19 3.637,2.378 5.399,4.15 0.608,0.607 1.216,1.214 1.842,1.839 0.656,0.664 1.312,1.329 1.987,2.013 0.7,0.701 1.4,1.402 2.121,2.125 2.314,2.32 4.622,4.648 6.929,6.976 1.611,1.618 3.223,3.235 4.836,4.851 4.249,4.263 8.492,8.531 12.734,12.8 6.775,6.818 13.555,13.628 20.339,20.435 2.362,2.373 4.721,4.748 7.079,7.124 1.463,1.47 2.925,2.939 4.388,4.408 0.648,0.654 1.295,1.308 1.962,1.983 3.791,3.799 7.696,7.402 11.772,10.894 2.948,2.582 5.688,5.359 8.437,8.149 0.591,0.595 1.182,1.19 1.792,1.803 2.489,2.506 4.972,5.018 7.456,7.529 6.53,6.594 13.015,13.132 20.127,19.106 1.181,1.033 2.359,2.068 3.535,3.105 21.722,19.021 44.838,37.382 70.465,50.895 -1.666,-1.522 -3.333,-3.042 -5,-4.562 -0.928,-0.847 -1.856,-1.694 -2.812,-2.567 -1.613,-1.466 -3.235,-2.911 -4.893,-4.325 -6.128,-5.233 -11.818,-10.883 -17.513,-16.578 -1.707,-1.706 -3.423,-3.403 -5.139,-5.101 -5.945,-5.914 -11.536,-11.9 -16.731,-18.493 -1.915,-2.378 -3.937,-4.596 -6.037,-6.812 C 166.748,213.315 143.747,182.293 133,154 c 2.461,-1.231 4.258,-1.206 7.008,-1.316 0.493,-0.021 0.493,-0.021 2.988,-0.127 1.033,-0.04 2.065,-0.079 3.129,-0.119 1.04,-0.044 2.081,-0.087 3.152,-0.131 2.574,-0.107 5.149,-0.209 7.723,-0.307 2.212,3.546 4.011,7.141 5.75,10.938 2.674,5.353 5.18,8.879 10.25,12.062 0.61,0.41 1.219,0.82 1.848,1.242 7.932,4.432 18.484,4.004 27.156,2.098 10.748,-3.886 17.843,-11.304 22.996,-21.34 3.219,-8.042 3.31,-17.294 0.5,-25.5 -2.284,-4.97 -5.774,-7.87 -10.5,-10.5 -3.473,-1.158 -6.361,-1.069 -10,-1 0.598,0.681 1.196,1.361 1.812,2.062 5.04,6.767 6.185,12.608 5.188,20.938 -1.783,7.704 -5.428,12.655 -12,17 -5.826,3.381 -11.514,3.714 -18,2 -5.665,-2.611 -8.351,-6.497 -11,-12 -2.513,-7.539 -1.815,-15.251 1.562,-22.375 5.716,-10.079 13.318,-15.522 24.333,-19.27 13.487,-2.277 25.992,0.445 37.527,7.739 4.196,3.102 7.943,6.626 11.719,10.222 0.471,0.443 0.471,0.443 2.859,2.684 0.906,0.877 1.813,1.753 2.746,2.656 3.371,2.771 5.791,2.839 10.174,2.525 0.685,-0.042 1.369,-0.083 2.075,-0.125 2.327,-0.146 4.649,-0.33 6.974,-0.513 1.714,-0.114 3.429,-0.225 5.144,-0.333 3.842,-0.247 7.683,-0.508 11.523,-0.778 6.74,-0.466 13.483,-0.863 20.227,-1.251 2.478,-0.143 4.956,-0.286 7.434,-0.429 0.632,-0.037 0.632,-0.037 3.831,-0.221 6.724,-0.391 13.448,-0.794 20.171,-1.197 2.832,-0.17 5.663,-0.339 8.495,-0.509 0.712,-0.042 1.424,-0.085 2.157,-0.129 8.17,-0.489 16.341,-0.974 24.511,-1.459 1.529,-0.091 3.058,-0.181 4.587,-0.272 2.314,-0.138 4.627,-0.275 6.941,-0.412 8.633,-0.513 17.266,-1.026 25.9,-1.54 0.785,-0.047 1.57,-0.093 2.38,-0.141 12.772,-0.76 25.545,-1.524 38.318,-2.289 13.219,-0.792 26.438,-1.578 39.657,-2.36 8.1,-0.479 16.2,-0.962 24.3,-1.451 6.208,-0.375 12.417,-0.742 18.626,-1.106 2.522,-0.149 5.044,-0.301 7.566,-0.455 15.441,-0.942 30.793,-1.421 46.263,-1.211 -0.96,1.131 -1.921,2.26 -2.883,3.388 -0.535,0.629 -1.07,1.258 -1.621,1.906 -8.951,10.205 -23.518,14.307 -36.008,18.323 -1.278,0.418 -2.557,0.836 -3.835,1.255 -3.404,1.113 -6.812,2.216 -10.22,3.317 -2.869,0.928 -5.737,1.863 -8.604,2.798 -19.711,6.425 -39.451,12.759 -59.205,19.049 -14.781,4.711 -29.529,9.52 -44.267,14.363 -7.296,2.397 -14.595,4.785 -21.893,7.173 -5.718,1.872 -11.435,3.747 -17.149,5.632 -5.151,1.698 -10.307,3.382 -15.467,5.056 -1.871,0.609 -3.742,1.224 -5.61,1.845 -21.939,7.278 -21.939,7.278 -31.816,2.375 -1.903,-1.076 -3.794,-2.174 -5.672,-3.292 -1.901,-1.091 -3.802,-2.181 -5.703,-3.27 -0.437,-0.255 -0.437,-0.255 -2.651,-1.545 -2.751,-1.577 -5.536,-3.005 -8.396,-4.373 0.641,0.629 1.281,1.258 1.941,1.906 14.073,13.926 14.073,13.926 17.059,20.094 -22.446,7.968 -44.941,15.757 -67.566,23.203 -3.597,1.184 -7.182,2.399 -10.762,3.633 C 245,240 245,240 242,240 c 0.422,0.482 0.843,0.964 1.277,1.461 0.548,0.632 1.096,1.263 1.661,1.914 0.545,0.626 1.09,1.253 1.652,1.898 2.272,2.782 2.547,4.518 2.535,8.039 -0.001,0.403 -0.001,0.403 -0.008,2.438 C 249,258 249,258 248.25,260.812 c -0.082,0.722 -0.165,1.444 -0.25,2.188 1.844,2.29 3.374,3.687 6,5 0.103,-1.072 0.206,-2.145 0.312,-3.25 0.662,-3.608 1.263,-5.114 3.688,-7.75 4.875,1.75 4.875,1.75 6,4 0.326,5.429 -0.547,9.825 -2,15 0.619,0.309 1.238,0.619 1.875,0.938 1.375,0.687 2.75,1.374 4.125,2.062 0.17,-0.626 0.34,-1.253 0.516,-1.898 0.242,-0.818 0.484,-1.635 0.734,-2.477 0.232,-0.812 0.464,-1.624 0.703,-2.461 1.268,-2.622 2.371,-3.158 5.047,-4.164 2,1.5 2,1.5 4,4 0.422,5.15 -0.153,9.92 -1,15 1.98,1.32 3.96,2.64 6,4 0.031,-0.443 0.031,-0.443 0.188,-2.688 0.994,-4.053 2.713,-5.61 5.812,-8.312 2,1.562 2,1.562 4,4 0.36,3.815 0.013,6.934 -0.75,10.688 C 293,298 293,298 294.75,300.375 297,302 297,302 300,303 c -0.103,-0.887 -0.206,-1.774 -0.312,-2.688 0.407,-4.319 2.084,-5.568 5.312,-8.312 2.497,1.645 3.639,2.398 5,5 -0.102,3.051 -0.102,3.051 -0.562,6.5 -0.761,5.995 -0.761,5.995 0.812,8.457 1.688,1.355 1.688,1.355 4.75,3.043 0.144,-1.279 0.289,-2.558 0.438,-3.875 0.268,-2.382 0.484,-3.97 1.562,-6.125 2.875,-0.125 2.875,-0.125 6,0 2,2 2,2 2.188,5.125 -0.14,2.882 -0.458,5.273 -1,8.063 -0.062,1.258 -0.124,2.516 -0.188,3.812 2.438,2.5 2.438,2.5 5,4 2.019,-3.311 3,-5.461 3,-9.375 -2.322,-8.416 -7.395,-13.254 -14,-18.625 -1.548,-1.316 -3.097,-2.632 -4.642,-3.951 -4.533,-3.864 -9.106,-7.673 -13.733,-11.424 -5.119,-4.164 -10.093,-8.48 -15.064,-12.817 -4.607,-4.008 -9.296,-7.888 -14.041,-11.73 -3.939,-3.249 -7.737,-6.65 -11.52,-10.078 2.005,-2.005 3.224,-2.673 5.812,-3.688 0.667,-0.271 1.333,-0.543 2.02,-0.824 2.804,-0.631 4.43,-0.374 7.168,0.512 2.508,1.715 2.508,1.715 5.125,3.938 0.481,0.406 0.481,0.406 2.914,2.464 3.787,3.323 7.504,6.717 11.211,10.129 2.687,2.413 5.44,4.702 8.25,6.969 4.756,3.837 9.255,7.894 13.75,12.031 2.687,2.413 5.44,4.702 8.25,6.969 3.785,3.053 7.422,6.207 11,9.5 4.39,4.036 8.912,7.84 13.551,11.586 3.363,2.753 6.658,5.576 9.949,8.414 5.017,4.323 10.092,8.558 15.234,12.73 2.507,2.058 4.981,4.146 7.447,6.252 5.528,4.72 11.144,9.291 16.881,13.754 4.494,3.501 8.909,7.089 13.313,10.702 5.966,4.881 12.049,9.569 18.239,14.163 5.748,4.271 11.382,8.676 16.995,13.122 1.729,1.361 3.482,2.694 5.282,3.961 0.531,0.434 1.062,0.868 1.609,1.316 0,0.66 0,1.32 0,2 -16.432,0.593 -31.856,-0.955 -48,-4 -1.257,-0.236 -2.514,-0.472 -3.81,-0.715 C 308.484,371.628 215.767,331.492 131,270 c -1.389,-1.029 -2.779,-2.057 -4.168,-3.086 -11.623,-8.634 -23.022,-17.541 -34.199,-26.746 -1.75,-1.441 -3.505,-2.876 -5.266,-4.305 -5.212,-4.232 -10.345,-8.542 -15.429,-12.925 -4.764,-4.106 -9.583,-8.115 -14.516,-12.016 C 52.903,207.336 48.46,203.658 44,200 c -1.708,-1.396 -3.417,-2.792 -5.125,-4.188 -3.972,-3.248 -7.935,-6.509 -11.894,-9.774 -11.476,-9.463 -22.995,-18.874 -34.626,-28.147 -2.632,-2.114 -5.245,-4.25 -7.855,-6.391 -4.216,-3.457 -8.456,-6.882 -12.719,-10.281 -2.085,-1.664 -4.169,-3.331 -6.25,-5 -1.26,-1.011 -2.521,-2.021 -3.781,-3.031 -0.64,-0.513 -1.279,-1.026 -1.938,-1.554 -3.117,-2.495 -6.242,-4.977 -9.394,-7.427 C -57.939,117.711 -66.02,110.953 -74,104 c -0.761,-0.659 -1.521,-1.317 -2.305,-1.996 -1.907,-1.658 -3.802,-3.33 -5.695,-5.004 -0.359,-0.313 -0.359,-0.313 -2.176,-1.895 -5.346,-4.716 -10.461,-9.638 -15.512,-14.667 -0.308,-0.307 -0.308,-0.307 -1.871,-1.858 -16.188,-16.242 -39.004,-40.979 -39.753,-65.205 0.119,-6.779 1.779,-12.374 6.195,-17.605 C -101.966,-35.896 -34.874,-19.555 0,0 Z m 188,198 c 10.272,11.266 25.065,17.278 40.169,18.121 11.642,0.474 22.496,-0.461 33.831,-3.121 0,-0.33 0,-0.66 0,-1 -0.693,-0.015 -1.387,-0.029 -2.101,-0.044 -24.174,-0.566 -45.395,-3.188 -67.641,-13.038 C 190,198 190,198 188,198 Z"
         fill="#e0531e"
         transform="translate(170,207)"
         id="path1" />
      <path
         d="m 0,0 c 0.928,0.804 1.856,1.609 2.812,2.438 3.078,2.645 6.216,5.203 9.376,7.75 4.607,3.75 8.984,7.681 13.33,11.725 3.233,2.991 6.549,5.824 9.982,8.587 4.519,3.636 8.78,7.468 13.022,11.416 3.211,2.971 6.504,5.784 9.916,8.522 C 66.367,56.823 73.821,63.785 81,71 c -7.103,4.323 -14.297,8.456 -21.562,12.5 -2.193,1.222 -4.386,2.445 -6.579,3.668 -1.122,0.626 -2.244,1.251 -3.4,1.896 -3.508,1.964 -7.008,3.942 -10.506,5.924 -1.134,0.641 -2.267,1.282 -3.435,1.942 -2.184,1.234 -4.366,2.473 -6.546,3.715 -0.987,0.556 -1.974,1.113 -2.992,1.687 -0.867,0.492 -1.734,0.984 -2.628,1.491 -15.824,7.915 -41.254,1.684 -57.414,-3.511 -19.477,-6.671 -39.899,-17.525 -49.876,-36.437 -5.032,-11.142 -5.304,-20.987 -1.382,-32.629 4.111,-10.107 10.058,-17.943 20.129,-22.523 13.048,-4.975 25.107,-5.051 38.003,0.484 6.63,3.19 6.63,3.19 8.719,5.449 C -17,16 -17,16 -13,16 c 0.214,-0.531 0.428,-1.062 0.648,-1.609 C -10.487,11.092 -7.958,8.49 -5.375,5.75 -4.859,5.196 -4.344,4.641 -3.812,4.07 -2.546,2.71 -1.273,1.354 0,0 Z m -45,16 c 0.446,2.6 0.95,4.885 2,7.312 2.374,6.379 2.424,11.239 0,17.516 -2.905,6.309 -5.939,9.955 -12.535,12.524 -6.421,1.689 -13.013,0.77 -19.465,-0.352 0.535,4.551 2.177,7.414 5,11 6.801,5.135 12.64,5.99 21,5 9.069,-2.822 15.103,-7.936 20,-16 3.661,-7.061 4.503,-15.657 2.344,-23.332 C -28.879,24.658 -32.322,20.85 -37,18 c -2.696,-0.982 -5.156,-1.501 -8,-2 z"
         fill="#f4efe6"
         transform="translate(176,387)"
         id="path2" />
      <path
         d="M 0,0 C 6.264,2.152 12.23,4.803 18.223,7.617 13.185,22.367 7.712,36.915 2.035,51.43 c -1.683,4.312 -3.365,8.625 -5.047,12.937 -0.411,1.053 -0.822,2.105 -1.245,3.19 -2.464,6.319 -4.893,12.651 -7.286,18.998 -0.55,1.452 -1.101,2.904 -1.652,4.356 -0.752,1.983 -1.501,3.967 -2.238,5.956 -0.656,1.771 -1.326,3.536 -1.997,5.301 -0.18,0.483 -0.18,0.483 -1.093,2.927 -1.403,2.821 -2.827,4.522 -5.254,6.522 -2.661,0.617 -4.997,1.014 -7.688,1.25 -0.718,0.069 -1.436,0.137 -2.176,0.208 -2.045,0.188 -4.091,0.365 -6.136,0.542 -0.879,0.155 -1.759,0.31 -2.664,0.469 -3.931,0.514 -5.701,0.001 -8.934,-2.387 -1.898,-1.722 -3.757,-3.489 -5.578,-5.293 -2.681,-2.648 -5.444,-5.002 -8.387,-7.351 -4.563,-3.681 -8.931,-7.526 -13.246,-11.493 -1.995,-1.77 -4.033,-3.381 -6.191,-4.945 1.666,-4.334 4.875,-7.133 8.125,-10.312 0.544,-0.544 1.088,-1.087 1.648,-1.647 2.784,-2.754 5.619,-5.393 8.611,-7.919 5.643,-4.922 10.868,-10.263 16.142,-15.573 1.906,-1.918 3.815,-3.834 5.725,-5.749 4.044,-4.055 8.084,-8.115 12.124,-12.175 4.704,-4.728 9.41,-9.454 14.12,-14.176 1.882,-1.889 3.761,-3.78 5.64,-5.672 1.147,-1.15 2.293,-2.3 3.44,-3.45 C -8.679,5.416 -8.156,4.888 -7.618,4.345 -2.694,-0.58 -2.694,-0.58 0,0 Z"
         fill="#f4efe6"
         transform="translate(604.77734,417.38281)"
         id="path3" />
      <path
         d="m 0,0 c 0.681,0.409 1.361,0.817 2.062,1.239 1.357,0.817 2.709,1.642 4.055,2.477 2.592,1.595 5.242,3.085 7.883,4.596 2.375,1.372 2.375,1.372 4,2.563 0,0.66 0,1.32 0,2 -3.57,0.942 -7.141,1.883 -10.711,2.824 -1.131,0.298 -2.261,0.596 -3.426,0.904 -6.325,1.666 -12.65,3.331 -18.976,4.991 -1.97,0.517 -3.941,1.034 -5.911,1.551 -1.334,0.35 -2.667,0.7 -4,1.05 -8.372,2.197 -16.738,4.414 -25.098,6.655 -4.58,1.227 -9.163,2.443 -13.747,3.658 -2.162,0.576 -4.323,1.156 -6.483,1.742 -3.007,0.814 -6.018,1.612 -9.031,2.406 -0.438,0.121 -0.438,0.121 -2.656,0.733 -5.591,1.451 -10.652,2.324 -15.971,-0.63 -0.531,-0.463 -1.063,-0.926 -1.611,-1.404 -0.617,-0.521 -1.235,-1.043 -1.871,-1.581 -0.642,-0.565 -1.284,-1.13 -1.946,-1.712 -1.403,-1.188 -2.81,-2.375 -4.218,-3.558 -0.716,-0.605 -1.431,-1.209 -2.168,-1.832 -3.447,-2.847 -7.021,-5.512 -10.614,-8.172 -1.321,-0.983 -2.643,-1.966 -3.964,-2.949 -0.614,-0.456 -1.227,-0.911 -1.859,-1.381 -2.428,-1.808 -4.838,-3.638 -7.239,-5.482 -0.345,-0.265 -0.345,-0.265 -2.094,-1.606 -0.464,-0.398 -0.928,-0.797 -1.406,-1.207 0,-0.33 0,-0.66 0,-1 22.321,-2.856 44.729,-4.732 67.146,-6.644 5.335,-0.455 10.669,-0.918 16.003,-1.382 4.153,-0.361 8.308,-0.718 12.462,-1.073 1.968,-0.169 3.935,-0.34 5.903,-0.511 2.742,-0.239 5.484,-0.472 8.226,-0.703 0.793,-0.07 1.586,-0.14 2.403,-0.213 C -7.967,-5.053 -7.967,-5.053 0,0 Z"
         fill="#f4efe6"
         transform="translate(708,535.125)"
         id="path4" />
      <path
         d="M 0,0 C 3.542,0.789 5.857,2.079 8.875,4.125 31.493,18.773 54.653,22.335 81,23 c -3.551,3.005 -7.56,4.711 -11.797,6.52 -0.773,0.335 -1.546,0.67 -2.342,1.015 -2.535,1.097 -5.073,2.187 -7.611,3.277 -1.771,0.766 -3.542,1.532 -5.312,2.298 -3.596,1.557 -7.193,3.111 -10.791,4.664 -6.6,2.851 -13.185,5.736 -19.768,8.624 -11.302,4.958 -22.617,9.884 -33.941,14.79 -0.635,0.274 -1.269,0.549 -1.923,0.832 -2.885,1.25 -5.771,2.498 -8.66,3.739 -1.697,0.738 -3.388,1.488 -5.065,2.267 -3.386,1.56 -6.06,2.674 -9.79,1.974 -2.238,-1.75 -2.238,-1.75 -4.312,-4 -0.698,-0.743 -1.395,-1.485 -2.114,-2.25 -0.519,-0.577 -1.039,-1.155 -1.574,-1.75 2.563,-4.99 5.373,-9.638 8.715,-14.148 4.036,-5.497 7.961,-11.062 11.847,-16.664 0.339,-0.487 0.339,-0.487 2.051,-2.952 C -14.194,20.868 -7.087,10.441 0,0 Z"
         fill="#f4efe6"
         transform="translate(101,477)"
         id="path5" />
      <path
         d="M 0,0 C 1.277,0.57 2.546,1.157 3.812,1.75 4.52,2.075 5.228,2.4 5.957,2.734 8.502,4.311 9.603,5.323 11,8 c 0.386,2.905 0.329,5.762 0.25,8.688 -0.011,0.804 -0.022,1.608 -0.033,2.437 C 11.117,24.467 10.784,29.71 10,35 6.314,35 5.283,34.063 2.375,31.875 1.578,31.295 0.782,30.715 -0.039,30.117 -2.629,27.321 -2.806,25.802 -3,22 c 0.156,-3.248 0.495,-6.459 0.875,-9.688 0.092,-0.854 0.183,-1.708 0.277,-2.587 C -1.466,6.302 -1.093,3.28 0,0 Z"
         fill="#f4efe6"
         transform="translate(180,236)"
         id="path6" />
      <path
         d="M 0,0 C 4.566,1.442 4.566,1.442 6.312,3.688 7.519,7.746 7.615,11.502 6,15.438 5.67,15.953 5.34,16.469 5,17 2.75,17.312 2.75,17.312 0,17 -2.438,15.125 -2.438,15.125 -4,12 -3.766,7.484 -3.261,3.261 0,0 Z"
         fill="#f4efe6"
         transform="translate(229,276)"
         id="path7" />
      <path
         d="M 0,0 C 2.924,0.325 4.892,0.937 7.438,2.438 9.689,6.129 8.707,8.674 7.773,12.758 7,15 7,15 5,17 2.409,16.833 1.219,16.188 -0.75,14.5 -2.604,10.791 -2.578,7.077 -2,3 -1.34,2.01 -0.68,1.02 0,0 Z"
         fill="#f4efe6"
         transform="translate(211,263)"
         id="path8" />
      <path
         d="M 0,0 C 2.438,0.125 2.438,0.125 5,1 6.791,3.492 7.078,5.225 6.773,8.262 6.325,10.623 5.899,12.769 5,15 4.01,15.66 3.02,16.32 2,17 -0.438,15.875 -0.438,15.875 -3,14 -4.374,10.223 -4.125,7.803 -2.625,4.188 -1,1 -1,1 0,0 Z"
         fill="#f4efe6"
         transform="translate(245,290)"
         id="path9" />
      <path
         d="M 0,0 C 2.375,0.625 2.375,0.625 5,2 6.98,5.702 7.073,7.603 6.312,11.75 5,15 5,15 2,17 -0.5,16 -0.5,16 -3,14 -3.557,9.066 -3.307,5.478 -1,1 -0.67,0.67 -0.34,0.34 0,0 Z"
         fill="#f4efe6"
         transform="translate(275,314)"
         id="path10" />
      <path
         d="M 0,0 C 2.711,0.856 4.554,1.452 6.375,3.688 7.279,7.034 6.732,9.644 6,13 5.67,13.495 5.67,13.495 4,16 -0.875,15.125 -0.875,15.125 -2,14 -2.125,12.024 -2.176,10.043 -2.188,8.062 -2.202,6.981 -2.216,5.899 -2.23,4.785 -2,2 -2,2 0,0 Z"
         fill="#f4efe6"
         transform="translate(260,302)"
         id="path11" />
      <path
         d="M 0,0 C 2.878,1.29 5.058,2.483 7,5 6.926,7.191 6.926,7.191 6.312,9.562 6.123,10.348 5.934,11.133 5.738,11.941 5,14 5,14 3,16 0.065,15.633 -0.864,15.136 -3,13 -3.504,7.754 -2.65,4.526 0,0 Z"
         fill="#f4efe6"
         transform="translate(290,327)"
         id="path12" />
      <path
         d="M 0,0 C 2.5,0.188 2.5,0.188 5,1 7,4 7,4 6.625,6.688 6.419,7.451 6.212,8.214 6,9 3.36,9 0.72,9 -2,9 -2.125,5.625 -2.125,5.625 -2,2 -1.34,1.34 -0.68,0.68 0,0 Z"
         fill="#f4efe6"
         transform="translate(304,340)"
         id="path13" />
    </g>
  </g>
  <text
     x="988"
     y="377"
     font-family="Fraunces, 'Playfair Display', Georgia, 'Times New Roman', serif"
     font-size="300px"
     font-weight="600"
     id="text15">Tools</text>
  <text
     x="153"
     y="377"
     font-family="Fraunces, 'Playfair Display', Georgia, 'Times New Roman', serif"
     font-size="300px"
     font-weight="600"
     id="text17"><tspan
       fill="#f4efe6"
       id="tspan16">Go</tspan><tspan
       fill="#e0531e"
       font-style="italic"
       id="tspan17" /></text>
</svg>
