<?xml version="1.0" encoding="UTF-8"?>
<svg version="1.1" viewBox="0 0 1600 947" width="1224" height="725" xmlns="http://www.w3.org/2000/svg">
<path transform="translate(1441,11)" d="m0 0h11l6 3 3 5 1 7-5 27-12 57-11 54-21 98v15l5 4 15 6 11 7 10 9 7 14 2 9v8l-3 13-1 3 14 2 89 17 20 4 8 4 3 4-1 7-6 5-10 4-20 5-15 2-48 2-68 2-2 5-24 24-8 7-10 9-8 7-11 9-14 12-16 13-13 10-19 14-18 13-16 11-20 13-1 1 147 25 38 6h7l8-7 8-8 7-8 13-13 7-8 7-7 10-4 8-2h9l3 4-2 9-17 41-5 11-4 11-4 5-10 5-34 11-36 10-32 6-20 2-134 2-108 1-6 3-9 8-10 7-8 4 1 13-4 10-3 5v15l8 4 10 3 11 7 6 8 4 13v14l-4 13-6 11-12 12-11 4-4 1h-11l-10-5-5-4-6-7h-13l-5-2-6-5-3-2-11 9-18 10-26 12-28 9-30 7-12 2-11 1h-19l-21-2-13-5-9-6-10-9-9-13-7-15-5-15-3-17v-21l3-15 5-12 5-9-2 1-20 2-34 1-37-2-38-5-17 1-92 13-58 7-64 9-48 6-41 5-23 2h-7v18l-1 8-3 2-20 3h-6l2 4v6l8 2 10 6 6 8 3 7v17l-4 11-7 10-7 8-14 4h-14l-8-7-7-7-13-3-10-8-6-8-2-8v-12l4-12 6-9 8-7 8-3 5-1v-2l-4-3-1-3-11 1h-14l-2-2 2-14-36-1-35-3-27-5-24-7-15-6-15-8-11-9-9-10-6-10-4-12-2-14 2-15 5-16 11-23 10-16 10-14 11-14 9-10 12-13 8-14 9-14 12-19 14-22 11-14 12-13 9-9 11-9 13-10 19-12 23-12 26-10 27-8 41-9 43-7 72-10 112-14 134-16 79-9 187-21 108-12 88-9 20-2 14-5 12-7 11-9 11-12 13-18 21-31 29-43 29-44 10-14 15-22 8-10 12-12 12-7 14-4 15-3zm-382 664-2 1 1 4 4-5zm-21 6m20 0v5h1v-5z" fill="#C8BEB6"/>
<path transform="translate(1441,11)" d="m0 0h11l6 3 3 5 1 7-5 27-12 57-11 54-21 98v15l5 4 13 5-1 2 8 7 6 9 5 12 2 12v21l-10-2h-10l-40 10-26 9-16 8-9 7-4 5-4 11-1-2-7 1-5-3v-4l3-5-1-2-3 3h-6l-1 5-8 5-4 6-5 2h-3v8l-3 6-5 2-3-1v-2l-2-2 6-2 3-39-3 2-5-1-9-3-12-1-10 2-9 4-8 6-6 7-6 12-2 8v22l3 10 10 15-4-2-7-10-4-9h-6l-3 1-2 4-2 2-1 5h-1v-12l2-19 1-16v-43l-2-24-3-20-2-4-16 6-19 7-8 2 1 5 9 2 5 6 2 8 2 31v26l-2 28-2 3-1-4-4 2-3 6-3-1 1-5v-15l-3-6-5-1h-4l-10-9-9-4-4-1h-19l-12 4-10 6-10 9-5 6-4 4-2 8-8 20-5 22-2 18 1 19 4 15 6 9 6 5 3 2 3 3-26 4-34 5h-7l3-5 11-9 11-14 8-16 5-13 3-15 1-16-2-18v-13l-3-7-2-2h-7l-9-8-12-5-6-1h-10l-15 4-11 6-10 8-8 10-3 5-3-1h-7l-3 3-1 2v17l3 5-5 25-1 11v13l2 14 4 12 6 9 7 5 3 2v2l-28 5h-8v-5h-11l-4-4v-11l6-33 4-29 1-12v-3l1-6 2-29v-35l-1-18v-11l1-1 13-1 8 3 8 7 6 9 4 10 3 13h7l-2-31-3-23-1-3h-8l-118 17-6 1 2 19v31l-1 8 8-1 5-22 7-16 7-8 8-4 7-2h5l1 2 2 25v44l-4 1-1 3v21l2 4v10l-6 42-5 24-5 12-5 5-5 3-7 2-2 8-34 7-10 2v-3l11-9 9-10 2-5 8-15 6-18 3-12 1-11v-17l-3-16-5-14-8-10-10-7-8-3h-17l-10 4-9 7-7 8-5 7h-1l-1-21-11 4-15 7-23 9h-2v8h8l5 4 1 4v29h-2v-7l-8 1-6 6-4 1-1 5h3l-2 3-4 21h-1v-18l1-14v-39l-1-13-6 1-30 13-13 5-1 7h7l4 2 2 4v36l-2 27-1 5h-1v-13l1-19-5-1 1-2h4v-8l-6 2-5 6-8 4h-7l-2-5-12-2v2l-7 4h-16l1-9 5-9 5-4h5l7 10v2l6 2h8l7-4 5-8 2-8v-12l-4-11-5-5-6-3h-8l-10 5-8 9-8 16-2 5h-1l-1-29-2-1-36 15-14 5-1 8h10l3 2 2 6v27l-2 23h-1v-32l-5-1-13 5-13 4-3 1h-8l-4-1-1 6 4 1-5 1v16l-2 22h-1v-16l1-20v-71l-3-36v-8l1-1 11-1 10 2 8 6 7 8 6 12 4 12v5l9-1-5-45-2-16-12 1-129 19h-4l3 24 1 18v20h8l3-16 4-15 6-12 5-6 8-5 8-2h7l2 10 2 23 1 18v63l-2 32-2 4v-14l1-10-4-1h4l-2-10-2-6 3-5 1-6v-5l-4 1-2 7-1 10-11 4-9 3h-15l-8 2-2 2-4-40-1-8 1 16 2 22v13h-1l-1-5-5 1-11 5-3 1h-8l-6-2h-12l-5 3-3 2-1 7h-1l-4-41-2-14v5l4 38v17l-11 2-31 7-27 12-17 8-27 8-28 6-22 6-16 4-6 4-2-5v5l-8 1-13 4-44 5-10-2-11-7-5-4v-2h-2l-2-6v-9l2-12-2 1 2-6 8-14 11-16 10-13 9-11 7-7 7-8 6-9 11-18 28-44 11-14 12-13 9-9 11-9 13-10 19-12 23-12 26-10 27-8 41-9 43-7 72-10 112-14 134-16 79-9 187-21 108-12 88-9 20-2 14-5 12-7 11-9 11-12 13-18 21-31 29-43 29-44 10-14 15-22 8-10 12-12 12-7 14-4 15-3z" fill="#F2E9E3"/>
<path transform="translate(1429,287)" d="m0 0 5 1 10 6 10 9 7 14 2 9v8l-3 13-1 3 14 2 89 17 20 4 8 4 3 4-1 7-6 5-10 4-20 5-15 2-48 2-68 2-2 5-24 24-8 7-10 9-8 7-11 9-14 12-16 13-13 10-19 14-18 13-16 11-20 13-1 1 147 25 38 6h7l8-7 8-8 7-8 13-13 7-8 7-7 10-4 8-2h9l3 4-2 9-17 41-5 11-4 11-4 5-10 5-34 11-36 10-32 6-20 2-134 2-111 1v-2h-40l-11-1-46-7-7-2-10-1-7 1-6-5-10-3-8-1v-1l-58-1-7 1-38-1-71-2-8-1 1-4-5 9-1-2h-8l-9-3-1-1v-6l3-5-2-2 10-6 2-2 14-5 12-8 11-10 8-10v3l-7 9-7 7-8 6 2 1 27-6 11-2h4v-6l2-3 10-3 5-5 5-10 5-22 6-39 1-8v-10l-2-4v-21l4-4h2l-1-44-2-27-15 4-8 6-6 10-5 14-4 18-1 1h-8v-39l-2-19 7-2 118-17h8l2 4 3 23 1 14v17l-7 1-2-6-5-16-6-10-9-8-7-2-13 1v11l1 18v35l-2 29-2 8 1 2-4 33-5 29-2 11v11l3 3 11 1v5l32-5 3-2-11-8-6-10-4-15-1-9v-13l2-17 4-19-3-5v-17l3-5 2-1h7l3 2 2-5 9-11 11-9 13-6 12-3h10l12 3 10 6 5 5h7l5 6 1 4v17l2 14-1 16-4 18-7 17-8 13-9 11-12 10-1 2 12-1 50-7 2-1-9-7-6-7-4-10-2-9-1-19 3-24 5-19 8-19 2-8 7-6 7-8 11-8 12-5 4-1h19l11 4 9 7 4 4 6-1 5 5 1 3v15l-1 5h2l3-6 5-2 1 2 2-28v-26l-2-31-3-10-3-3-9-2-1-1v-5l25-9 17-7 3 2 3 15 2 17 1 15v43l-2 27-1 15 5-6 3-2h6l8 15 5 6-2-4-6-8-3-8-1-4v-22l4-13 7-11 7-7 9-5 8-3 12-1 14 3 4 2 6-1v17l-2 22-4 3-1 3 7-1 3-6v-8l2-2 4 1 9-9 6-4 1-4 8-1 1-3 2 1-4 10 5 3h7l6-12 9-8 10-6 20-8 26-8 29-7h10l9 2v-20l-2-12-5-12-6-9-8-7z" fill="#F2E9E3"/>
<path transform="translate(1429,287)" d="m0 0 5 1 10 6 10 9 7 14 2 9v8l-3 13-1 3 14 2 89 17 20 4 8 4 3 4-1 7-6 5-10 4-20 5-15 2-48 2-68 2-2 5-24 24-8 7-10 9-8 7-11 9-14 12-16 13-13 10-19 14-18 13-16 11-20 13h-2v2l-16-2-64-11-6-1 1-4-9-2h-14l-26 1 4-4-12 6-11 3-6 1h-14l-10-4-7-7-5-10-3-12-1-19 3-24 5-19 8-19 2-8 7-6 7-8 11-8 12-5 4-1h19l11 4 9 7 4 4 6-1 5 5 1 3v15l-1 5h2l3-6 5-2 1 2 2-28v-26l-2-31-3-10-3-3-9-2-1-1v-5l25-9 17-7 3 2 3 15 2 17 1 15v43l-2 27-1 15 5-6 3-2h6l8 15 5 6-2-4-6-8-3-8-1-4v-22l4-13 7-11 7-7 9-5 8-3 12-1 14 3 4 2 6-1v17l-2 22-4 3-1 3 7-1 3-6v-8l2-2 4 1 9-9 6-4 1-4 8-1 1-3 2 1-4 10 5 3h7l6-12 9-8 10-6 20-8 26-8 29-7h10l9 2v-20l-2-12-5-12-6-9-8-7z" fill="#C9BFB6"/>
<path transform="translate(956,628)" d="m0 0h19l8 3 5 4 11-1 7 1 5 2 33 5 24 3 40 1v3l-11 9-11 8-8 4 1 13-4 10-3 5v15l8 4 10 3 11 7 6 8 4 13v14l-4 13-6 11-12 12-11 4-4 1h-11l-10-5-5-4-6-7h-13l-5-2-6-5-3-2-11 9-18 10-26 12-28 9-30 7-12 2-11 1h-19l-21-2-13-5-9-6-10-9-9-13-7-15-5-15-3-17v-21l3-15 5-12 5-9-2 1-20 2h-23l3-3 21-7 2-6 2-7v-13l2-2 3-8-3-4 10 4 23-2 12-1 12-3 3-2 29-3 50-2 10-1zm103 47-2 1 1 4 4-5zm-21 6m20 0v5h1v-5z" fill="#D8461E"/>
<path transform="translate(1428,18)" d="m0 0 3 3 1 3v10l3-3 21-6 2-1 2-4 2 6-5 27-12 57-11 54-21 98v17l-10-1-13-1-43-2-82-6-10-1v-1h23l-10-7-8-2-1-4 6-11 10-12 9-15 6-11 7-11 9-14 11-19 9-13 8-13 16-23 14-25 7-10 8-12 9-11 12-9 10-6 13-5h5l1-1v-11z" fill="#C9BFB6"/>
<path transform="translate(783,443)" d="m0 0h17l10 4 9 7 8 10 6 18 2 12v17l-2 16-6 20-8 16-7 10-11 12-13 9-8 4-14 4h-11l-9-4-4-4-5 22-4 24-1 4v10l1 1 10 1-2 7-55 6h-8l2-6 8-4 4-8 3-12 3-15 4-18 6-40 3-23 1-15v-43l-2-5-3-2-8-1v-8l27-11 20-9h4l1 5 1 15 8-11 7-7 10-6z" fill="#151311"/>
<path transform="translate(993,411)" d="m0 0h10l12 3 10 6 5 5h7l5 6 1 4v17l2 14-1 16-4 18-7 17-8 13-9 11-13 11-16 8-19 4h-8l-12-3-9-7-6-10-4-15-1-9v-13l2-17 4-19-3-5v-17l3-5 2-1h7l3 2 2-5 9-11 11-9 13-6z" fill="#D8471F"/>
<path transform="translate(1104,394)" d="m0 0h19l11 4 9 7 4 4 6-1 5 5 1 3v15l-1 2v30l-4 18-6 15-8 13-8 10-8 8-10 7-12 6-11 3-6 1h-14l-10-4-7-7-5-10-3-12-1-19 3-24 5-19 8-19 2-8 7-6 7-8 11-8 12-5z" fill="#D8461E"/>
<path transform="translate(532,411)" d="m0 0h6l1 1 5 41 1 20-9 1-5-17-7-13-8-9-7-4-11-1-8 1 1 18 2 26v71l-2 32-5 40-1 3v11l2 4 13 2v6l-1 2-51 9-24 4h-6l1-7 8-3 6-3 5-6 4-11 4-26 3-33 1-18v-63l-2-30-2-21-15 3-9 6-7 11-5 15-4 19-1 2h-8l-2-38-2-18v-6l31-5 102-15z" fill="#141211"/>
<path transform="translate(1429,287)" d="m0 0 5 1 10 6 10 9 7 14 2 9v8l-3 13-1 3 14 2 89 17 20 4 8 4 3 4-1 7-6 5-10 4-20 5-15 2-48 2-37 1-61 1-22 1h-31l-5-3-4-5-1-7 4-10 7-7 13-8 20-8 26-8 29-7h10l9 2v-20l-2-12-5-12-6-9-8-7z" fill="#D84922"/>
<path transform="translate(994,634)" d="m0 0 12 1 5 2 33 5 24 3 40 1v3l-11 9-11 8-8 4 1 13-4 10-3 5v15l8 4 10 3 11 7 6 8 4 13v14l-4 13-6 11-12 12-11 4-4 1h-11l-10-5-5-4-6-7h-13l-5-2-6-5-3-3 2-5 8-16 3-12 1-7v-10l-2-15-4-14-8-16-4-5-5-3-4-1-7-7-5-2-22-3h-54l4-2 12-1h44l4-3 3-1 1-2h2l3-9 1-4-2-4zm65 41-2 1 1 4 4-5zm-21 6m20 0v5h1v-5z" fill="#9C270B"/>
<path transform="translate(949,355)" d="m0 0h8l2 4 3 23 1 14v17l-7 1-2-6-5-16-6-10-9-8-7-2-13 1v11l1 18v35l-2 29-2 8 1 2-4 33-5 29-2 11v11l3 3 11 1v6l-1 2-73 13h-3v-6l2-3 10-3 5-5 5-10 5-22 6-39 1-8v-10l-2-4v-21l4-4h2l-1-44-2-27-15 4-8 6-6 10-5 14-4 18-1 1h-8v-39l-2-19 7-2z" fill="#D8461E"/>
<path transform="translate(934,631)" d="m0 0h7v1l-36 9-18 6-14 8-26 7-24 9-1 1h5v3l-4 2 1 5 4 4 7 4 4 3v2l3 1 5 5 9 12 8 15-1 3-4-8-3-1-1-1 7 16 4 17v22l-3 12-4 10-5 5-4 2-1 4-7 3-10-3-9-7-5-6-3-5-4-4-4-5-6-12-3-9-6-8 2-9 1-21 5-18 7-8 6-5 3-1h-7l-6 3-10 11-3 9-4 20-2 7h-1v-16l3-15 5-12 5-9-2 1-20 2h-23l3-3 21-7 2-6 2-7v-13l2-2 3-8-3-4 10 4 23-2 12-1 12-3 3-2 29-3 50-2 10-1z" fill="#131110"/>
<path transform="translate(613,468)" d="m0 0h8l8 4 6 9 2 7v12l-3 10-5 7-7 4h-8l-6-3-7-11-7 1-4 5-4 10-2 8-3 40-5 36v14l13 2-1 6-2 2-63 11h-6l2-8 9-3 5-6 3-10 4-26 2-19 2-33v-27l-2-6-2-1-10-1v-8l12-5 25-10 14-6 3 2 1 27 7-16 7-9 7-6z" fill="#151211"/>
<path transform="translate(1195,308)" d="m0 0 3 2 3 15 2 17 1 15v43l-2 27-4 30-6 33-3 13v6l2 3 6 1-2 8-51 10h-4l1-7 9-5 5-10 7-32 6-40 2-19 1-16v-26l-2-31-3-10-3-3-9-2-1-1v-5l25-9z" fill="#D8461F"/>
<path transform="translate(250,733)" d="m0 0h13v27l1 1h21l2 3v6l8 2 10 6 6 8 3 7v17l-4 11-7 10-7 8-14 4h-14l-8-7-7-7-13-3-10-8-6-8-2-8v-12l4-12 6-9 8-7 8-3 5-1v-2l-4-3-1-3h-22l1-15 2-1z" fill="#161413"/>
<path transform="translate(827,672)" d="m0 0h10l12 5 10 7 6 5 8 10 9 16 6 14 5 20 1 6v22l-4 18-8 16-7 8-5 4-11 4h-13l-11-2-16-8-12-11-9-13-7-15-5-15-3-17 1-9 3-14 4-16 9-11 6-5 3-1h8l-1 2-5 2-5 5-5 6-5 18-1 21-2 9 7 10 4 11 6 11 8 8 4 7 7 6 9 4 4 1 7-2 1-4 6-4 4-7 4-12 1-6v-22l-4-17-7-16-1-4 9 9-9-16-8-10-6-5v-2l-4-2-7-4-5-5-1-5 5-4z" fill="#C8BEB5"/>
<path transform="translate(684,459)" d="m0 0 5 1 1 13v39l-3 38-5 37v15l1 1 10 1v6l-1 2-39 7-25 4h-3l1-7 10-5 4-5 3-10 4-29 3-39v-36l-1-4-11-2v-7l9-4 28-12z" fill="#151312"/>
<path transform="translate(1505,530)" d="m0 0h9l3 4-2 9-17 41-5 11-4 11-4 5-10 5-34 11-36 10-20 4h-15l-5-5 1-8 8-8 21-12 11-5h3v-2l13-4 13-5 7-9 11-11 7-8 13-13 7-8 7-7 10-4z" fill="#D84A23"/>
<path transform="translate(1258,369)" d="m0 0 12 1 11 4 6-1v17l-2 22-1 1h-6l-9-23-4-6-3-3-3-1h-7l-6 4-3 5-1 4v12l5 10 11 9 10 7 8 7 5 10 1 4v14l-3 12-7 13-11 12-11 7-13 5-13 2-12-1-10-3-2-1 1-7 6-26 3-4 6-1 4 18 4 9 4 4 8 1 8-4 6-7 3-7v-10l-3-6-9-8-13-10-8-11-3-8-1-4v-22l4-13 7-11 7-7 9-5 8-3z" fill="#D8461E"/>
<path transform="translate(1071,714)" d="m0 0 5 1 9 3 12 6 6 5 4 6 4 13v14l-4 13-6 11-12 12-11 4-4 1h-11l-10-5-5-4-6-7h-13l-5-2-6-5-3-3 2-5 8-16 5-5 8-9 2-3 10-5 14-10 5-6z" fill="#161412"/>
<path transform="translate(532,411)" d="m0 0h6l1 1 5 41 1 20-9 1-5-17-7-13-8-9-7-4-11-1-8 1 1 25-1 16-7 1-10 6-16 5h-3l-1 8-3-3-2-30-2-21-15 3-9 6-7 11-5 15-4 19-1 2h-8l-2-38-2-18v-6l31-5 102-15z" fill="#353230"/>
<path transform="translate(982,627)" d="m0 0h25l6 1h28l26 1h51l37 1 16 1h17l7 1h30l77 1 61-1 5 7 2 1 9 1v1l-26 3-134 2-111 1v-2h-40l-11-1-46-7-7-2-10-1-7 1-6-5-2-2z" fill="#C8BEB5"/>
<path transform="translate(934,631)" d="m0 0h7v1l-36 9-18 6-14 8-26 7-24 9-1 1h5v3l-4 2 1 5 4 4 7 4 4 3v2l3 1 5 5 9 12 8 15-1 3-4-8-3-1-2-4-5-5-10-11-9-5-3-2h-8l-8 2-1 2-5 3-4 7-4 19v25l3 6 2 1 7 20 2 2-6-14-2-7 1-4 5 10 9 11 3 3v2h2l8 16 1 3 2 1h-4l7 3h13l-1 3-7 3-10-3-9-7-5-6-3-5-4-4-4-5-6-12-3-9-6-8 2-9 1-21 5-18 7-8 6-5 3-1h-7l-6 3-10 11-3 9-4 20-2 7h-1v-16l3-15 5-12 5-9-2 1-20 2h-23l3-3 21-7 2-6 2-7v-13l2-2 3-8-3-4 10 4 23-2 12-1 12-3 3-2 29-3 50-2 10-1z" fill="#5B534D"/>
<path transform="translate(772,463)" d="m0 0 9 1 6 5 4 8 3 11 1 7v32l-4 23-4 13-8 16-6 7-10 6h-8l-6-4-3-5-1-4v-12l4-35 3-49 6-10 7-7z" fill="#C9BFB6"/>
<path transform="translate(1420,323)" d="m0 0 2 1-12 7 11-5h12l5 1h11l2 1v21l-10-2h-10l-40 10-26 9-16 8-9 7-4 5-4 11-1-2-7 1-5-3v-4l3-5-1-2-3 3h-6l-1 5-7 4v-3l-3 1v2l-4 2-9 1v-4l8-3 5-12 12-11 5-5 8-6 6-4-11 5-5 4-6 3-8 9-5 5-8 11-1-2 3-13 2-2 3-4 3-5 13-8 15-7 15-6 10-5 17-5 10-3 10-1 3 2-14 3 24-3 13-5z" fill="#E4D8CF"/>
<path transform="translate(777,628)" d="m0 0h1l2 11h3l26-3 20-1 22-3 50-2h44v1l-15 2-10 1-50 2-29 3-5 3-16 3-22 1-7 1-9-4 4 4-3 3-2 5-1 2v12l-3 9-2 4-5 3-16 5-3 1v2l-34-1-22-2-30-4-17 1-92 13-58 7-64 9-17 2h-8v-2l7-1 16-2 18-4 18-2 16-3 17-2 16-3h8l24-6 11-1 7-1 13-2 22-6 16-3 13-3 25-6 4-1-1 5 13 1 13 5 6 1h34l11-2 7-4 4-7 9-3v-2h2l2-5 5-4 1-3-3-2 1-5 14-5-1-2z" fill="#9B9087"/>
<path transform="translate(990,422)" d="m0 0 7 1 6 5 2 6-4 4v11l2 8h5l1 5-2 25-4 22-5 17-8 16-7 8-7 3-7-1-4-5-2-6v-25l4-35 2-15 9-1 2-7v-12l-2-6-2-1 2-7 7-8z" fill="#CAC0B7"/>
<path transform="translate(1106,404)" d="m0 0h6l6 5 2 5-3 5v8l2 11 5 3-1 23-4 22-5 18-8 18-8 9-4 2h-9l-4-4-2-5v-24l6-44 2-10 6-2 2-3v-19l-2-5 5-8 5-4z" fill="#CAC0B7"/>
<path transform="translate(370,499)" d="m0 0h12v2l4 2 3 4 3 21 2 22v13h-1l-1-5-5 1-11 5-3 1h-8l-6-2h-12l-5 3-3 2-1 7h-1l-4-41-2-14v-8l2-6 7-3z" fill="#F0E7E1"/>
<path transform="translate(187,506)" d="m0 0 16 1 17 3 11 1 1 1v8l-9 49-2 2h-12l-42-9-7-3-1-4 8-15 6-12 8-13z" fill="#696461"/>
<path transform="translate(848,491)" d="m0 0h10l5 3 5 2 1 3v9l-1 13-1 10-5 24-5 12-5 5-5 3-7 2-2 8-34 7-10 2v-3l11-9 9-10 2-5 8-15 6-18 3-12 1-11 2 4 6-4h2v-2l11-8h-6l-8 7-5 1 1-6h2l2-6 2-4z" fill="#C9BFB6"/>
<path transform="translate(241,513)" d="m0 0h12l20 1 8 6 3 6 4 25v8l-7 6-3 2-32 5h-13l-1-2v-10l7-44z" fill="#343230"/>
<path transform="translate(786,646)" d="m0 0 8 3v16l2-2 2 6 2 5-1 9-1 5 11-9 11-6 7-1v3l-4 2 1 5 4 4 7 4 4 3v2l3 1 5 5 9 12 8 15-1 3-4-8-3-1-2-4-5-5-10-11-9-5-3-2h-8l-8 2-1 2-5 3-4 7-4 19v25l3 6 2 1 7 20 2 2-6-14-2-7 1-4 5 10 9 11 3 3v2h2l8 16 1 3 2 1h-4l7 3h13l-1 3-7 3-10-3-9-7-5-6-3-5-4-4-4-5-6-12-3-9-6-8 2-9 1-21 5-18 7-8 6-5 3-1h-7l-6 3-10 11-3 9-4 20-2 7h-1v-16l3-15 5-12 5-9-2 1-20 2h-23l3-3 21-7 2-6 2-7v-13l2-2 3-7z" fill="#8D857D"/>
<path transform="translate(148,487)" d="m0 0 5 2 10 6 16 7-1 5-13 23-13 24-5 2-14-6-14-9-2-2 1-6 11-17 15-24z" fill="#343230"/>
<path transform="translate(925,486)" d="m0 0 4 3-1 10v21h1l2 14 4 12 6 9 7 5 3 2v2l-28 5h-8v-5h-11l-4-4v-11l6-33 3-4h2l2-5v-1l-4 3 2-15 3-6z" fill="#C9BFB6"/>
<path transform="translate(1114,533)" d="m0 0 2 1-4 3 24-1h14l9 3 1 3 21 4 7 1v2l2 1h-2l-1 3-17 8h-21l-7-3-10-1h-24l-3-2h-19l6 1-2 2h-6l-5 3-4 1h-10l-10 3-1-4 1-3 19-3-1-1-11 1v-4l3-3 6-2h11v3h3l8-2-2-2v-3l14-4z" fill="#E5D8CF"/>
<path transform="translate(248,759)" d="m0 0h6l1 9 1 2 1 15-4 6-2 6 6 7-1 14 4 9v5l-3 1-4-4-13-3-10-8-6-8-2-8v-12l4-12 6-9 8-7z" fill="#171514"/>
<path transform="translate(661,391)" d="m0 0h9l8 4 5 5 4 7 1 4v13l-4 10-8 7-8 3-8-1-6-3-6-7-4-10v-14l3-8 5-6 5-3z" fill="#151312"/>
<path transform="translate(819,694)" d="m0 0h8l-8 4v6l-4 7-1 17-1 9v7l9 20 12 16 8 13 11 8-1 4-4 2h-11l-8-4 3-1-4-6-4-9-1-4h-2l-9-11-7-10v3l6 15 1 4-4-4-6-17v-3l-3-1-3-6v-25l4-19 6-9 4-1 1-3z" fill="#353331"/>
<path transform="translate(990,422)" d="m0 0 7 1 6 5 2 6-4 4v11l2 8h5l1 5-2 25-2 12-2 2 1-12v-14h-9l-7 5-10 14-5 4-6 1v10l-3 1 2-21 3-23 9-1 2-7v-12l-2-6-2-1 2-7 7-8z" fill="#F0E7E1"/>
<path transform="translate(1074,670)" d="m0 0h3l2 8-1 8-6 12v16l-5 8-8 7-16 10-3 1-6 8-7 6 1-10 1-7v-10l-2-15-3-12h3l9 1 1 1 2-2 2 3v5h2v-2l14-2 12-3-2-6-4-4v-2l-4-1-2-1v-7l4-6zm-16 11v5h1v-5z" fill="#696562"/>
<path transform="translate(242,728)" d="m0 0h21l8 1v1h20l13-1h10l1 2v16l-1 8-3 2-26 4-11 1h-10l-2-2v-26h-29l-5-1 2-3z" fill="#8C847C"/>
<path transform="translate(1106,404)" d="m0 0h6l6 5 2 5-3 5v8l2 11 5 3-1 23-2 2-1-9h-8l-10 8-8 7h-10v-10l3-16 6-2 2-3v-19l-2-5 5-8 5-4z" fill="#F1E8E2"/>
<path transform="translate(1048,453)" d="m0 0 2 1 1 6-3 14-2 18 1 19 4 15 6 9 6 5 3 2 3 3-26 4-34 5h-7l3-5 11-9 11-14 8-16 5-13 3-15 1-11 1-1v-16z" fill="#CBC1B8"/>
<path transform="translate(776,641)" d="m0 0h4v2l-6 4-1 1-1 7-7 5-3 9-7 4-5 7-6 3-15 2-8 1h-25l-16-3-6-2-14-2-3-1v-2l-16 4-21 5-24 4-27 5-26 4-2 2-1 2-42 5-64 9-17 2h-8v-2l7-1 16-2 18-4 18-2 16-3 17-2 16-3h8l24-6 11-1 7-1 13-2 22-6 16-3 13-3 25-6 4-1-1 5 13 1 13 5 6 1h34l11-2 7-4 4-7 9-3v-2h2l2-5 5-4 1-3-3-2 1-5z" fill="#A69387"/>
<path transform="translate(1329,403)" d="m0 0 5 1 4 3 4 1h31l22-1h19l-4 1-2 5-10 7-9 4-4 9-1-3v-3l-9 5-13 2-9 2-4-8-4-2-6-7-8-11z" fill="#9A8F86"/>
<path transform="translate(809,690)" d="m0 0h8l-1 2-5 2-5 5-5 6-5 18-1 21-2 9 7 10 4 11 6 11 8 8 4 7 7 6 9 4 4 1 7-2 1-4 6-4 2-3h2l-2 4-6 8-6 4-4 1h-11l-10-4-14-11-9-13-4-8-2-9-3-11-4-2-2-11 1-9 3-14 4-16 9-11 6-5z" fill="#998D84"/>
<path transform="translate(638,486)" d="m0 0h7l4 2 2 4v36l-2 27-1 5h-1v-13l1-19-5-1 1-2h4v-8l-6 2-5 6-8 4h-7l-2-5-12-2v2l-7 4h-16l1-9 5-9 5-4h5l7 10v2l6 2h8l7-4 5-8 2-8z" fill="#EDE4DE"/>
<path transform="translate(187,506)" d="m0 0 16 1 17 3 11 1 1 3-19-2h-9l-4 5-3 4-14 28-7 12 5 2v1l-9-1-11-3-2-2 1-5 9-17 6-11 10-17z" fill="#34312F"/>
<path transform="translate(532,411)" d="m0 0h6l1 1 5 41 1 20-9 1-5-17-7-13-8-9-9-5 3-1 4 1 3-3 2-4 5-2v-5l-6-1 2-2z" fill="#2B2725"/>
<path transform="translate(855,682)" d="m0 0 4 2 6 5 8 10 9 16 5 11v5l-1-2-8 6-6 1-5-5-8-16-9-14-6-7-1-4 9-3 6-1z" fill="#FCFCFC"/>
<path transform="translate(1421,326)" d="m0 0h12l5 1h11l2 1v21l-10-2h-10l-26 6-5-5-12-5h-23l2-2 5-1h14l11 4 4-2 3-3 12-3 3-1h-10l-10 1 3-2 11-4z" fill="#C9BFB6"/>
<path transform="translate(1e3 669)" d="m0 0 6 1h2l1 3 6 3 11 4h9v2h6l5 2 10 2 1-4v5l6 2 6 7 1 6-25 5-2-1v2h-2l-2-7-2 2-1-1-9-1-3-1-8-16-5-7-5-3-4-1z" fill="#353331"/>
<path transform="translate(250,733)" d="m0 0h13v27l1 1h16l-1 2 2 7-4-2-12 2-1 7-7 7h-1l-1-14-1-2-1-12-4-3-1-3h-22l1-15 2-1z" fill="#161413"/>
<path transform="translate(1082,743)" d="m0 0h6l7 6 1 2v15l-5 10-6 5-5 2-7-1-5-4-2-6v-10l4-9 6-7z" fill="#6A6662"/>
<path transform="translate(827,672)" d="m0 0h10l12 5 6 4 4 6-15 3 2 5 8 10 9 15 7 14 6 1 6-4 4-2h2l3 11v7l-2-1-2 1h-13l-3 1-10-24-8-14-8-10-6-5v-2l-4-2-7-4-5-5-1-5 5-4z" fill="#C8BEB5"/>
<path transform="translate(786,646)" d="m0 0 8 3v16l2-2 2 6 2 5-1 15-3 2v-2l-2 1-20 2h-23l3-3 21-7 2-6 2-7v-13l2-2 3-7z" fill="#6A6663"/>
<path transform="translate(444,531)" d="m0 0h4l1 7-2 7-2 4 3 9v5l-31 5-13 2h-7v17l-1 19h-1v-47l7-3 9-1h10l9-3 7-3h4v-10l2-7z" fill="#C6BCB3"/>
<path transform="translate(1252,379)" d="m0 0h7l5 3 3 3-1 4 1 7v9l-3 5-2 4-8 4 2 4-4-2-7-6-4-9v-12l3-7 4-5z" fill="#F1E8E2"/>
<path transform="translate(897,640)" d="m0 0h5v2l-17 6-12 7-26 7-19 7-3-1 1-6-1-3-6-2-3-3v-2l-13-1v-1l54-2 18-1 3-1v-2l4-1 9-1z" fill="#46403C"/>
<path transform="translate(242,728)" d="m0 0h21l8 1v1h20l13-1h10l1 2v7l-1 5-18-1h-27l-7-1v-7h-29l-5-1 2-3z" fill="#686460"/>
<path transform="translate(1114,533)" d="m0 0 2 1-4 3 24-1h14l9 3 1 3 21 4-1 3-7 3h-13l-10-3-4-2-1-2-10 4-13 3-7-1-5-6-2-4-3 2-2-3 9-6z" fill="#F2E9E3"/>
<path transform="translate(772,463)" d="m0 0 9 1 6 5 4 8 3 11v11l-1-3-6-2-4-4-4-1 1-5v-10l-1-5-9-1-4 2v16l4 6 1 2h-5l-3 3h-9l-3 39-2 16h-1v-11l2-25 2-33 6-10 7-7z" fill="#EEE5DE"/>
<path transform="translate(285,792)" d="m0 0h8l5 3 3 6v8l-4 9-4 5-5 2h-10l-5-6-1-2v-9l3-8 8-7z" fill="#8E867D"/>
<path transform="translate(981,759)" d="m0 0h1v7l-4 15-7 14-3 4 4 2-1 3-14 6-25 8-30 7-12 2-11 1h-19l-1-2 11-3 3 2h6l8-4 15-3 8-1 8-7 4-3-2 4-2 3 14-4 22-5 10-5 7-10 5-11 4-15z" fill="#9E2C10"/>
<path transform="translate(814,693)" d="m0 0h10v1l-13 3-1 2-5 3-4 7-4 19v25l3 6 2 1 7 20 2 2-6-14-2-7 1-4 5 10 9 11 3 3v2h2l8 16 1 3 2 1h-4l7 3h13l-1 3-7 3-10-3-9-7-5-6-3-5-4-4-4-5-6-12-3-9-6-8 2-9 1-21 5-18 7-8z" fill="#6A6562"/>
<path transform="translate(1429,287)" d="m0 0 5 1 10 6 10 9 7 14 2 9v8l-3 13-1 3-8-1-1-21-2-12-5-12-6-9-8-7z" fill="#5B534E"/>
<path transform="translate(782,644)" d="m0 0 4 3-3 3-2 5-1 2v12l-3 9-2 4-5 3-16 5-3 1v2l-34-1-10-1v-3l35-1 9-1 8-6h2v-2l5-2 3-9 3-10 4-1 1-8 2-3z" fill="#8B837B"/>
<path transform="translate(489,446)" d="m0 0 2 3-1 23-7 1-10 6-16 5h-3l-1 8-3-3v-23h1l1 6 2-2 14-4 10-6 3-5h7z" fill="#2B2725"/>
<path transform="translate(242,515)" d="m0 0h15l12 1-6 11-11 10-11 8-3 1-3-2 2-16 2-12z" fill="#59514B"/>
<path transform="translate(737,470)" d="m0 0 6 1 3 4v16l-3 6-6 5h-6l-5-5-2-5-1-13 2-5 2-2h8z" fill="#353331"/>
<path transform="translate(1074,670)" d="m0 0h3l2 8-1 8-6 12v16h-5l-9 4-11 4-3 1v-10l10-1 12-5 3-1-1-10-5-5v-2l-4-1-2-1v-7l4-6zm-16 11v5h1v-5z" fill="#6B6663"/>
<path transform="translate(914,633)" d="m0 0h6l2 2-11 2-21 1-24 3-7 2-2 3-3 1-24 1-8 1h-24l-5-1 2-2 3-1 22-1 16-3 5-3 29-3z" fill="#6A6663"/>
<path transform="translate(1395,407)" d="m0 0h7l-5 5-3 2h-4l-1 7h-1l-1-5-10 6-18-1-11-3-6-4-3-4 1-2h33z" fill="#8B837B"/>
<path transform="translate(813,695)" d="m0 0 3 1-6 3 1-3zm-6 4 3 1-6 8-4 20-1 25h2v-25l2-4v25l2 5 4 5 7 11 7 8v2h2l8 13 11 12-2 2-8-1-5-3 3-1-4-6-4-9-1-4h-2l-9-11-7-10v3l6 15 1 4-4-4-6-17v-3l-3-1-3-6v-25l4-19 6-9z" fill="#46403C"/>
<path transform="translate(852,731)" d="m0 0 6 1 2 2 2 3 4 17v22h-1l-1-17-7 3-6-1-7-6-2-4v-9l4-6z" fill="#393634"/>
<path transform="translate(563,691)" d="m0 0 6 1v2l-26 4-2 2-1 2-42 5-64 9-17 2h-8v-2l7-1 16-2 18-4 18-2 16-3 17-2 16-3h8l24-6 11-1z" fill="#A8978B"/>
<path transform="translate(809,690)" d="m0 0h8l-1 2-5 2-5 5-5 6-5 18h-2v20l-3 6v14l-2-4-4-2-2-11 1-9 3-14 4-16 9-11 6-5z" fill="#978C83"/>
<path transform="translate(909,572)" d="m0 0 5 1 1 3-4 3-5 3-3 4-4 1-25 2h-14l-4-2 5-4 7-3v-1z" fill="#E5D8D0"/>
<path transform="translate(1068,701)" d="m0 0 2 1v5l-5 2-11 4-9 1-1 9 8-4 14-5 4-1 1 3-4 6-8 7-16 10h-3l2-10v-21l1-2 14-2z" fill="#5C534D"/>
<path transform="translate(661,391)" d="m0 0h9l8 4 5 5 2 4v4h-8l-6-2v-4l-4-1v3h2v3l-6 3-5-1-10 2h-2l-1-6 6-9 6-4z" fill="#2B2725"/>
<path transform="translate(702,485)" d="m0 0h11v29h-2v-7l-8 1-6 6-4 1-1 5h3l-2 3-4 21h-1v-18l1-13 2-2v-7l5-10h2l1-6z" fill="#F2E8E2"/>
<path transform="translate(884,801)" d="m0 0 1 2-2 6-4 6-7 7-9 4-4 1h-13l-11-2-12-6-1-3 5 1 9 4h7l14-5 13-8 9-6z" fill="#8B837B"/>
<path transform="translate(1332,351)" d="m0 0 2 1-14 9-4 4h-2l-2 4-10 9-5 12-2 2-7 1v4l13-3v-2l4-2-2 5-4 6-5 2h-3v8l-3 6-5 2-3-1v-2l-2-2 6-2 3-30 2-1v7l7-10 4-5 5-5 8-7 6-3 3-3z" fill="#F3EAE4"/>
<path transform="translate(994,634)" d="m0 0 12 1 5 2 33 5 24 3v1l-40 1h-19l-12-2-6-3-5-5 1-2z" fill="#58504A"/>
<path transform="translate(815,697)" d="m0 0 4 1v6l-4 7-1 17-1 9v7l9 20 12 16 8 13 11 8-2 2-8-5-7-7-6-11-1-3h-2l-8-10-6-11-3-5-2-7v-11l1-8v-11l-1-5-3 3 1-5 8-8z" fill="#2A2624"/>
<path transform="translate(1e3 669)" d="m0 0 6 1h2l1 3 6 3 11 4h9v2h6l5 2 10 2 1-4v5l6 2 3 5-27 1-2 1-4-7h-7l-6-4-2 2-7-10-5-3-4-1z" fill="#2A2624"/>
<path transform="translate(864,731)" d="m0 0 2 2 5 13v2l5-2h11l5-2 2 11v22h-1l-1-14-11 2h-7l-3-5-7-26z" fill="#9A8F86"/>
<path transform="translate(815,459)" d="m0 0h6l6 5-1 20-4 5h-7l-5-6-1-3v-14z" fill="#48423E"/>
<path transform="translate(987,633)" d="m0 0h20l42 2 2 2-2 1 6 2 19 2 20 1 3 1v2h-29l-11-1-46-7-7-2-10-1-7 1z" fill="#A49286"/>
<path transform="translate(258,735)" d="m0 0 3 1v16l-2 13-2 4 6 1v-8l17-1-1 2 2 7-4-2-12 2-1 7-7 7h-1l-1-14-1-2-1-12-4-3-2-5h2v-10h1v7l7 1z" fill="#423D3A"/>
<path transform="translate(901,630)" d="m0 0h44v1l-15 2-10 1-31 1h-20l-52 3-27 3-6 1-2-2 1-1 26-3 20-1 22-3z" fill="#A19085"/>
<path transform="translate(250,782)" d="m0 0h4l1 5-4 10 6 7-1 14 4 9v5l-3 1-4-4-4-10-1-10-3-1-2-5v-7l4-10z" fill="#2C2826"/>
<path transform="translate(596,506)" d="m0 0h5l7 10v2l12 3v1l-7 1-5-1v2l-7 4h-16l1-9 5-9z" fill="#EEE5DF"/>
<path transform="translate(1150,408)" d="m0 0 5 1 3 4 1 3v15l-3 3-1-3-2-1-1 4-3 2-4-1-2-3-1-5v-15l7-3z" fill="#5C534D"/>
<path transform="translate(936,443)" d="m0 0h7l2 2 1 7v14l-4 6h-7l-3-3-1-3v-17l3-5z" fill="#5D544E"/>
<path transform="translate(1032,425)" d="m0 0h5l5 6 1 4v13l-2 1-1 5-4 2-5-1-2-6-1-8v-13z" fill="#696561"/>
<path transform="translate(1215,412)" d="m0 0h1l1 19 3 10 10 15-4-2-7-10-4-9h-6l-3 1-2 4-2 2-1 5h-1v-12l2-19 6-2z" fill="#EAE0D9"/>
<path transform="translate(968,439)" d="m0 0h10l3 7v12l-3 7-2 1h-7l-3-9v-15z" fill="#6B6663"/>
<path transform="translate(795,763)" d="m0 0 5 3 10 19 4 4 3 7 4 5v2l3 1 2 4-6-1-8-6-9-10-8-17-1-10z" fill="#F2EAE5"/>
<path transform="translate(770,467)" d="m0 0h6l4 4 1 3v10l-3 6-5 3-4-1-4-6v-14z" fill="#C7BDB4"/>
<path transform="translate(1069,420)" d="m0 0 5 1 1 1 1 7v16l-3 5h-8l-2-5v-14l4-10z" fill="#5E554F"/>
<path transform="translate(772,463)" d="m0 0 9 1 6 5 4 8 3 11v11l-1-3-6-2-4-4-4-1 1-5v-10l-1-5-7-2-3-3z" fill="#F0E7E1"/>
<path transform="translate(241,513)" d="m0 0h12l20 1 2 2-8 10-6 8-12 12-5 3-3 5-3 2h-3l-1-9 2-4 3 2 6-4 10-8 8-7 5-9-11-1h-15l-2 1z" fill="#46403C"/>
<path transform="translate(872,451)" d="m0 0 7 1 2 3 1 5v17l-3 4h-6l-3-6v-21z" fill="#45403C"/>
<path transform="translate(803,757)" d="m0 0 2 2 4 8 9 11 3 3v2h2l8 16 1 3 2 1h-4l7 3h13l-1 3-7 3-10-3-9-7-5-6 1-3 4 3-3-9-7-9-5-2-5-15z" fill="#5C544E"/>
<path transform="translate(996,557)" d="m0 0h8l8 3 1 3-3 1-1 6-8 2h-8l-9-6-1-5 4-1v3h2v-3z" fill="#E4D7CE"/>
<path transform="translate(1082,743)" d="m0 0h6l7 6 1 2v15l-5 10-6 5-5 2-7-1-5-4-2-6v-10l4-9 6-7zm-1 5-8 3-4 8v10l4 8 4 2 6-1 5-3 4-4 2-6v-8l-2-5-4-4z" fill="#6D6762"/>
<path transform="translate(834,475)" d="m0 0 7 1 5 4 9-1 4-1-4 5-10 4-5-5-1-3h-3l1 9 3 5v8l-1 2h-2v5l7-3 5-5h7l-5 5-5 4h-2v2l-6 4h-2l-1 2-1-23-1-14z" fill="#E7DBD3"/>
<path transform="translate(142,476)" d="m0 0h2l1 7-12 19-16 25-3 5h-2l1-8 5-8 3-7 15-24z" fill="#4F4A46"/>
<path transform="translate(1186,401)" d="m0 0 5 1 2 3 1 10v11l-5 5-5-1-2-5v-20z" fill="#5B524D"/>
<path transform="translate(1119,414)" d="m0 0h8l2 1v18l-3 5h-2v2l-5-1-2-5-1-7v-8z" fill="#5B534E"/>
<path transform="translate(1225,396)" d="m0 0h7l2 5 1 8v10l-2 3h-5l-4-5-2-7v-10z" fill="#5C534D"/>
<path transform="translate(1376,356)" d="m0 0 8 1v2l-21 8-14 7-9 7-4 5-4 11-5-4 4-10 4-4h2l2-4 9-4 13-8 12-6z" fill="#F1E9E3"/>
<path transform="translate(1304,195)" d="m0 0 2 4-1 8 1 7-3 1-1 3-4 2-4 8-2 5-6 5-3 6-2-3 4-9 9-17 8-16z" fill="#E5D8CF"/>
<path transform="translate(1e3 434)" d="m0 0 5 1 2 2 1 4v16l-3 3-1-3-5 1-3-9v-11z" fill="#888179"/>
<path transform="translate(884,801)" d="m0 0 1 2-2 6-3 3v-2l-12 6-11 4-10 3-9 1-3 1-12-6-1-3 5 1 9 4h7l14-5 13-8 9-6z" fill="#9B8F86"/>
<path transform="translate(402,716)" d="m0 0 6 1-1 2-21 3-41 5-11 1h-13l-2-2 1-1h14l12-1 10-2 13-3 6 1 5-2 18-1z" fill="#A7968B"/>
<path transform="translate(794,705)" d="m0 0h3l-1 9-3 12-1 18-4 8-1-3h-2v-9l3-22 4-10z" fill="#C9BFB6"/>
<path transform="translate(541,442)" d="m0 0 2 2 2 22v7l-9 1-5-17v-2l6-3h2z" fill="#1D1A19"/>
<path transform="translate(855,682)" d="m0 0 4 2 6 5 3 5-1 3-15 1 5 10-1 2-7-10-5-6-1-4 9-3 6-1z" fill="#F2E9E3"/>
<path transform="translate(869,634)" d="m0 0 2 1-1 1-29 3-5 3-16 3-22 1-7 1-3-2 7-2 19-3 18-2 18-3z" fill="#8B837B"/>
<path transform="translate(1067,716)" d="m0 0 3 1-3 5-8 7-16 10h-3l2-10 2-3 1 2 10-6z" fill="#343230"/>
<path transform="translate(1286,390)" d="m0 0h1v7l14-3v-2l4-2-2 5-4 6-5 2h-3v8l-3 6-5 2-3-1v-2l-2-2 6-2z" fill="#EFE6E0"/>
<path transform="translate(444,524)" d="m0 0 4 1v2l-6 2-3 5-9 5-16 6-12 2-5 4-2-1 1-6 7-3 23-4 10-5h2l2-5z" fill="#E5D8CF"/>
<path transform="translate(397,468)" d="m0 0h1v7l10-4v11l-3 12h-8z" fill="#272322"/>
<path transform="translate(879,719)" d="m0 0h4l2 2 2 5v5l-1-2-8 6-6 1-5-5-4-8 1-3 5 9 4-4 4-5z" fill="#F1E8E2"/>
<path transform="translate(242,515)" d="m0 0h9l5 1-3 9-3 3-10 6-2 2 1-11 2-9z" fill="#696562"/>
<path transform="translate(851,739)" d="m0 0 5 1-1 10-1 7-6 2-5-6-1-2v-9l4-1z" fill="#726D68"/>
<path transform="translate(331,567)" d="m0 0h3v11l-12 3-24 5-3-1 9-3 11-2 2-4 9-7z" fill="#C9BFB6"/>
<path transform="translate(1072,671)" d="m0 0 3 1-4 1-1 17-2 3-5-3-6-3v-7l4-6zm-14 10v5h1v-5z" fill="#C6BCB4"/>
<path transform="translate(1395,407)" d="m0 0h7l-5 5-3 2h-4l-1 7h-1l-1-5-10 6-18-1v-2l21-6 5-1h4v-1l-1-2z" fill="#8B837B"/>
<path transform="translate(258,735)" d="m0 0 3 1v16l-2 13-3 3-1-1v-5l2-3-2-1v-2l-5-2-3-6h2v-10h1v7l7 1z" fill="#5C534D"/>
<path transform="translate(1074,670)" d="m0 0h3l2 8-1 8-6 12h-3l-6-8 4 1 1 1 1-7 2-12z" fill="#958B83"/>
<path transform="translate(1367,400)" d="m0 0h23l8 1-3 3-18 2h-19l-7-2 4-3z" fill="#9D270B"/>
<path transform="translate(813,695)" d="m0 0 3 1-6 3 1-3zm-6 4 3 1-6 8-4 20v25l1 7-4-4-1-3v-25l4-19 6-9z" fill="#5C534D"/>
<path transform="translate(439,438)" d="m0 0h7l2 10v16h-1l-2-12-4-3-8-3h-8l2-4 7-3z" fill="#FAF9F8"/>
<path transform="translate(242,728)" d="m0 0h21l8 1v1l5 1v1l-19 1-7 1h-17l-5-1 2-3z" fill="#998E85"/>
<path transform="translate(1092,419)" d="m0 0 3 1 1 2v19l-4 5h-5l1-14 3-12z" fill="#6B6663"/>
<path transform="translate(839,695)" d="m0 0 3 1 5 5 9 12 8 15-1 3-4-8-3-1-2-4-5-5-10-11-7-5 2-1 5 1z" fill="#9C9087"/>
<path transform="translate(959,565)" d="m0 0h9l3 2-5 3-5 5-8 2h-6l-2-4 6-5z" fill="#E4D7CE"/>
<path transform="translate(637,509)" d="m0 0h10l2 2v5l-9 4-3 2-1-1-3 3-4 2h-5l-2-3 8-1 6-12z" fill="#E5D8CF"/>
<path transform="translate(777,628)" d="m0 0h1l2 11 6 2 12-2 19-2 26-1v1l-27 4-16 2-14 2-8-5-1-2z" fill="#968B83"/>
<path transform="translate(1032,425)" d="m0 0h5l5 6 1 4v13l-3 1-3-8-4-11-3 7-2 3v-12z" fill="#574F49"/>
<path transform="translate(1056,682)" d="m0 0h1v5l6 2 3 5-27 1-2 1-2-3v-4l12-1 7-2h2z" fill="#2B2725"/>
<path transform="translate(186,505)" d="m0 0h15l12 2v2h9l7 1v1h-9l-17-3-16-1-8 13-6 11-5 9-8 15-2-1 2-6 9-16 14-25z" fill="#ACA29A"/>
<path transform="translate(1081,748)" d="m0 0h7l5 5 1 4v8l-3 7-5 5-5 2-7-1-4-6-1-3v-10l4-8zm-1 2-5 5-3 4-1 3v7l3 7 2 1h6l4-2 5-6 1-4v-9l-3-5-1-1z" fill="#2D2A27"/>
<path transform="translate(1048,453)" d="m0 0 2 1 1 6-3 14-2 18-1 15h-1v-12h-2l-1 3 1-10 2-17 1-1v-16z" fill="#E6DCD5"/>
<path transform="translate(797,692)" d="m0 0 2 1-5 9-2 3-5 25-3 11h-1v-16l3-15 5-12 5-5z" fill="#867E77"/>
<path transform="translate(892,749)" d="m0 0h1l1 6v22h-1l-1-18-1 1-13 1-3-1v-6l5-2h11z" fill="#898179"/>
<path transform="translate(1030,640)" d="m0 0 18 1 46 2 3 1v2h-29l-11-1-13-2-14-2z" fill="#948A81"/>
<path transform="translate(1006,637)" d="m0 0 11 1 27 4 24 3v1h-16l-16-1-24-3-6-4z" fill="#6A6663"/>
<path transform="translate(880,460)" d="m0 0h2v17l-3 4h-6l-1-3 3-16z" fill="#696561"/>
<path transform="translate(283,793)" d="m0 0 3 1-6 4-4 5v14l5 4 5 1 6-3 5-6 2-9h1v8l-4 8-5 4-3 1h-10l-5-6-1-2v-9l3-8z" fill="#B7ADA4"/>
<path transform="translate(847,735)" d="m0 0 1 2 2-1h6l4 4-1 9 1 7-5 4-4 1-2-2 5-2v-11l2-6-8 1-4 3-1-4z" fill="#47413D"/>
<path transform="translate(1333,409)" d="m0 0 6 5 6 7 10 4 7 5v4l-9 2-4-8-4-2-6-7-6-8z" fill="#A79488"/>
<path transform="translate(858,798)" d="m0 0h2l-2 4-6 8-6 4-4 1h-11l-8-3 1-3 7 2-5-6 15 6 8-2 1-4 6-4z" fill="#8A817A"/>
<path transform="translate(282,795)" d="m0 0h9l5 4 1 4-5-5-9 1-5 5v13l2 2h9l3-2 2-4h2l1-9h1v9l-7 8-5 2-5-1-6-5v-14z" fill="#544F4C"/>
<path transform="translate(250,782)" d="m0 0h4l1 5-5 12-3 3v7l-3-3-1-3v-7l4-10z" fill="#383432"/>
<path transform="translate(263,752)" d="m0 0 10 1 5 4v2h9l-2 2-11 1h-10l-2-2v-7z" fill="#A1968D"/>
<path transform="translate(449,538)" d="m0 0h2v14l-2 32-2 4v-14l1-10-4-1h4l-2-10-2-6 3-5z" fill="#ECE3DC"/>
<path transform="translate(201,510)" d="m0 0h7l-4 2-4 5-3 4-11 22h-3l-1-7 9-11 4-6 3-6z" fill="#47413D"/>
<path transform="translate(146,486)" d="m0 0 3 1-8 11-12 20-12 18-3-1 7-11 15-23 9-14z" fill="#C3BAB1"/>
<path transform="translate(803,773)" d="m0 0 4 2 4 8-2-5 1-3v2l4 1 8 11 1 7-4-2-6-5-2-2-4-5z" fill="#6F6A65"/>
<path transform="translate(356,550)" d="m0 0h9l2 4h-2l-1 2-11 1-10 2-5 4-2-1 2-4 8-5z" fill="#E5D8CF"/>
<path transform="translate(696,494)" d="m0 0 1 4-1 5v7l-2 1 2 2-4 4v3h3l-2 3-4 21h-1v-18l1-13 2-2v-7z" fill="#E9DED7"/>
<path transform="translate(936,443)" d="m0 0h5l-4 1-2 4-1 4 5 3 1 3-4 9-2 4-3-5v-17l3-5z" fill="#48433F"/>
<path transform="translate(125,503)" d="m0 0 5 4-13 20-3 5h-2l1-8 5-8 3-7z" fill="#716B66"/>
<path transform="translate(1025,699)" d="m0 0 2 1 9 1 1 1 2-2 2 3v9l-9-2-5-3-2-3-1-4z" fill="#5C534D"/>
<path transform="translate(1150,408)" d="m0 0 5 1 3 4 1 3v15l-3-2-3-10-3-5-2 2-3-3v-2z" fill="#6A6561"/>
<path transform="translate(1066,698)" d="m0 0 4 2-1 2-12 3-12 2-2-1v2h-2l-1-6 1-2h16z" fill="#47413D"/>
<path transform="translate(1031,680)" d="m0 0h4v2h6l5 2 8 2v1l-7 2-13 1-7-7z" fill="#171514"/>
<path transform="translate(799,780)" d="m0 0 3 4 6 9 6 5-4-11h3l4 9 4 5v2l3 1 2 4-6-1-8-6-9-10-4-8z" fill="#C9BFB6"/>
<path transform="translate(994,634)" d="m0 0 12 1 1 3 5 4-15 1-8-5-1-3z" fill="#D9471F"/>
<path transform="translate(495,512)" d="m0 0h3l3 13 4 1 9-3 8-1-3 2-9 5h-11l-2 1-1 5h-1z" fill="#E5D8CF"/>
<path transform="translate(786,756)" d="m0 0 3 1 4 11 1 8 4 12 8 13 2 4-5-4-8-14-7-17-3-13z" fill="#B9AFA6"/>
<path transform="translate(1376,356)" d="m0 0 8 1v2l-21 8-11 5 2-4 10-7z" fill="#F0E8E2"/>
<path transform="translate(498,429)" d="m0 0 11 1 5 3-3 1-9 1-9 2-2 5-2-3v-8l1-1z" fill="#F6F5F3"/>
<path transform="translate(1056,675)" d="m0 0 3 1h-2l-1 10-10-1-4-2-4-1h-3v-2l9-2 1-1h10z" fill="#67625E"/>
<path transform="translate(825,672)" d="m0 0 3 1-1 2-4 2 1 5 4 4 7 4-2 1-9-4-7-4v-2h-9l4-4 8-4z" fill="#9E9289"/>
<path transform="translate(1460,317)" d="m0 0 2 3 1 6v8l-3 13-1 3-7-1 3-9 4-7h2z" fill="#7C7672"/>
<path transform="translate(793,721)" d="m0 0h2l-1 22-3 6v14l-2-4-4-2-2-11 1-9 2-3-1 15 3 1 3-6 1-19z" fill="#9E9086"/>
<path transform="translate(461,420)" d="m0 0 4 1-6 2-35 5h-11l1-2 24-4z" fill="#F7F5F4"/>
<path transform="translate(240,511)" d="m0 0h27l9 2 8 7 1 4-2 2-3-6-7-5-20-1h-14z" fill="#A89E96"/>
<path transform="translate(1071,762)" d="m0 0h1l1 5 4 2h13l-4 6-4 2h-6l-4-4-1-4z" fill="#5A514C"/>
<path transform="translate(1019,684)" d="m0 0 7 4h7l4 6-1 2h-10l-4-1-3-6z" fill="#343230"/>
<path transform="translate(274,761)" d="m0 0h6l-1 2 2 7-4-2-12 2-1 2v-10z" fill="#383533"/>
<path transform="translate(1067,713)" d="m0 0 4 1-1 3-4 1-17 8-5 3-1-6 9-4 14-5z" fill="#5B524C"/>
<path transform="translate(845,633)" d="m0 0m-8 1h8l-2 2-26 2-27 3-6 1-2-2 1-1 26-3 20-1z" fill="#A79488"/>
<path transform="translate(869,819)" d="m0 0 2 1 1 2-9 4-4 1h-13l-5-1v-1z" fill="#6E6965"/>
<path transform="translate(1e3 434)" d="m0 0 4 1 2 2 1 4v16l-3 3h-1l-2-19z" fill="#48423E"/>
<path transform="translate(1402,407)" d="m0 0h7l-1 3-8 7-8 3-3-1 1-5 7-3z" fill="#998E85"/>
<path transform="translate(250,733)" d="m0 0h13v27l1 2-1 8-6-1 2-13 1-4v-16l-2-1-1 2v-3h-7z" fill="#211E1D"/>
<path transform="translate(371,545)" d="m0 0 4 3 10-2 7 1 2 5-6-3-4 1-4 6-6 3-1-10z" fill="#E5D8CF"/>
<path transform="translate(1210,413)" d="m0 0h4v10l-5 3h-3l-2-3v-7z" fill="#C9BFB6"/>
<path transform="translate(650,506)" d="m0 0h1v22l-2 27-1 5h-1v-13l1-19-5-1 1-2h4v-8h2z" fill="#E5DAD2"/>
<path transform="translate(968,439)" d="m0 0 6 1-2 10-3 3v10l-2-1-1-5v-15z" fill="#5E554F"/>
<path transform="translate(1383,345)" d="m0 0 11 1 8 5v3l-1-2-5-1h-12v-3h-9l-12 2 2-2 7-2z" fill="#C9BFB6"/>
<path transform="translate(165,531)" d="m0 0 2 3-1 6-5 8-4 2h-3l2-5 7-13z" fill="#F9F7F6"/>
<path transform="translate(820,797)" d="m0 0 7 4v2l5 1 5 2h13l-1 3-7 3-10-3-9-7-3-3z" fill="#67625E"/>
<path transform="translate(145,631)" d="m0 0 2 1-1 2-14 3-9 3-30 3-1-2 20-3 17-2 8-3z" fill="#E5D8CF"/>
<path transform="translate(199,515)" d="m0 0 2 4-8 16-8 14-2-2 8-16z" fill="#5B524C"/>
<path transform="translate(647,682)" d="m0 0h18l-2 3-15 2h-20v-1z" fill="#8D847C"/>
<path transform="translate(849,500)" d="m0 0h7l-5 5-5 4h-2v2l-6 4h-2v-6l4-2 5-3z" fill="#E4D7CE"/>
<path transform="translate(536,412)" d="m0 0h3l2 16v5h-2l-1-5-3 2-4-3 1-5 2-2h3z" fill="#33302E"/>
<path transform="translate(1373,408)" d="m0 0h18l-3 1 5 1-4 3-4 1-1-1-23 6h-6l3-2 22-6 3-1-10-1z" fill="#6A6663"/>
<path transform="translate(813,695)" d="m0 0 3 1-6 3 1-3zm-6 4 3 1-6 8-4 20-1 19h-1v-23l4-19z" fill="#47413D"/>
<path transform="translate(604,519)" d="m0 0 4 2v3l-7 4-13-1v-2l6-2h4v-2z" fill="#F2E9E3"/>
<path transform="translate(136,495)" d="m0 0 3 1-2 5-11 17-4 6-3-1 7-12 9-14z" fill="#EFE9E4"/>
<path transform="translate(590,473)" d="m0 0h6l1 3-1 2 2 1-4 4h-4v2h-2l-1-2v-7z" fill="#E4D7CF"/>
<path transform="translate(224,734)" d="m0 0h5l-2 1v12l-1 3h11v1h-14l-2-2 2-14z" fill="#7D7671"/>
<path transform="translate(1256,422)" d="m0 0 11 1 2 1 2 7 8 9 3 6-1 3-6-11-9-8-10-7z" fill="#ECE3DC"/>
<path transform="translate(225,547)" d="m0 0h1v7l-3 15-2 2h-9v-1l7-1v-12l5-6z" fill="#554D48"/>
<path transform="translate(1153,541)" d="m0 0h5l6 2 12 2-1 3h-8l-9-2h-6l-2-3z" fill="#E4D7CE"/>
<path transform="translate(285,792)" d="m0 0h8l5 3 3 6v8l-3 1-2-4-1-7-4-3-7-1z" fill="#7A736F"/>
<path transform="translate(1149,422)" d="m0 0 3 4 1 7-4 3-4-1-2-3 1-5 5-2z" fill="#6A6663"/>
<path transform="translate(1082,743)" d="m0 0h6l2 2 3 4-1 2-4-2h-7l-9 3 2-4 5-4z" fill="#625A55"/>
<path transform="translate(736,471)" d="m0 0 2 1-1 4h-4l-2-1-1 5-5 2-2 4v-7l2-5 2-2h8z" fill="#2B2826"/>
<path transform="translate(1067,716)" d="m0 0 3 1-2 4-6 1-11 6-5 4h-4l1-6 2 2 10-6z" fill="#46403C"/>
<path transform="translate(939,691)" d="m0 0h13l-3 3-16 3-8 3 2-4 7-4z" fill="#171413"/>
<path transform="translate(794,723)" d="m0 0h1v21l-2 9 6 8-1 2-5-2h-2l-1-3v-9l3-6z" fill="#8B837B"/>
<path transform="translate(1024,694)" d="m0 0 2 1h11l2 5-2 3-1-1-9-1-3-1-2-5z" fill="#47413D"/>
<path transform="translate(822,816)" d="m0 0 5 1 9 4h7l11-3-1 3-6 2-9 1-3 1-12-6z" fill="#9A8F85"/>
<path transform="translate(349,723)" d="m0 0 6 1-1 2-20 2h-13l-2-2 1-1h14l12-1z" fill="#A9988C"/>
<path transform="translate(177,622)" d="m0 0 4 1-22 5-5 3-1 4-3 2-2-7 10-4z" fill="#E6D9D1"/>
<path transform="translate(950,692)" d="m0 0 2 1-3 4-21 4h-4l1-2 12-4 12-2z" fill="#9D270B"/>
<path transform="translate(711,514)" d="m0 0h2v14l-1 15-2 1-1-20h2l-2-6z" fill="#D5CAC2"/>
<path transform="translate(282,795)" d="m0 0h9l5 4 1 4-5-5-9 1-5 5-2 11h-1v-12z" fill="#4A4441"/>
<path transform="translate(223,786)" d="m0 0 3 3 2 6-1 7-3 1-1 4-1-5v-12z" fill="#3F3A37"/>
<path transform="translate(848,738)" d="m0 0h8l2 2-1 10 1 5-6 5-3-1 5-2v-11l2-6-8 1-4 3-1-4z" fill="#5B524C"/>
<path transform="translate(1034,740)" d="m0 0 5 1-4 6-7 7h-1l1-10 5-3z" fill="#433E3A"/>
<path transform="translate(1089,745)" d="m0 0 4 2 3 4v15l-4 8h-2l3-9v-8l-2-7v-2z" fill="#6E6964"/>
<path transform="translate(934,631)" d="m0 0h7v1l-36 9-5-1 4-2 18-4z" fill="#5E5853"/>
<path transform="translate(1186,401)" d="m0 0 5 1 2 3-1 4h-9l-1 3v-7z" fill="#443F3B"/>
<path transform="translate(227,735)" d="m0 0 6 1-1 8-2 5-4 1z" fill="#312D2B"/>
<path transform="translate(1036,734)" d="m0 0h5l-2 7h-5l-3 3h-2v-7z" fill="#5B534D"/>
<path transform="translate(819,694)" d="m0 0h8l-4 2-8 1-2 4-7 8-2 5h-1v-6l8-10z" fill="#3B3734"/>
<path transform="translate(1e3 673)" d="m0 0 5 2 5 5 2 4h-7l-6-9z" fill="#9D270B"/>
<path transform="translate(640,519)" d="m0 0v3l-6 5-5 2h-7l-2-5h3l1 1 7-1 4-1 1-3h3z" fill="#F3EAE4"/>
<path transform="translate(179,502)" d="m0 0 5 3-2 5-3 6-5-2 2-6z" fill="#F9F7F6"/>
<path transform="translate(872,451)" d="m0 0 7 1 2 3v5l-2 2h-4v5h-1v-15z" fill="#5A524C"/>
<path transform="translate(668,392)" d="m0 0 7 1 6 4 3 5-6-2-5 1-2-2-1-5z" fill="#171514"/>
<path transform="translate(127,507)" d="m0 0 1 3-11 17-3 5h-2l1-8 4-6 1 3z" fill="#4E4945"/>
<path transform="translate(1290,141)" d="m0 0h2l-2 5-8 11-11 17-1-3z" fill="#DED6CF"/>
<path transform="translate(250,734)" d="m0 0h7l1 3v7l-1 2-6-2v-2h2l-1-7z" fill="#131110"/>
<path transform="translate(1085,543)" d="m0 0h6v2l4 2-13 4-3-1 3-1-1-4z" fill="#EFE6E0"/>
<path transform="translate(142,476)" d="m0 0h2l1 7-3 5-8 2 2-5z" fill="#77716D"/>
<path transform="translate(967,645)" d="m0 0h7l-1 2-20 3h-10v-2z" fill="#89827B"/>
<path transform="translate(1167,435)" d="m0 0h1v10l-3 20-2 2v-8h-2v-3h3z" fill="#E4DAD3"/>
<path transform="translate(1409,407)" d="m0 0h5l-4 1-2 5-10 7-10 4 1-5 6-1 6-3 7-6z" fill="#A79488"/>
<path transform="translate(169,563)" d="m0 0h7l9 2 1 2-6 2-8-1-1-4z" fill="#F7F6F4"/>
<path transform="translate(795,763)" d="m0 0 5 3 2 6h-4l1 8-3-4-2-6v-6z" fill="#C9BFB6"/>
<path transform="translate(1092,753)" d="m0 0 2 4v8l-3 7-5 5-5 2-4-1 9-3 2-4 2-2 1-4v-11z" fill="#47413D"/>
<path transform="translate(986,635)" d="m0 0 9 6 7 3 26 2v1h-19l-12-2-6-3-5-5z" fill="#302A27"/>
<path transform="translate(241,513)" d="m0 0h12l17 1 2 2h-30l-2 1z" fill="#1C1A19"/>
<path transform="translate(852,731)" d="m0 0 6 1 2 2 2 3v3h-3l-3-3h-8l1-4z" fill="#34312F"/>
<path transform="translate(1357,624)" d="m0 0h8l-2 4-3 1h-13l1-2z" fill="#FEFEFE"/>
<path transform="translate(766,481)" d="m0 0 1 4 6 1 2 1v2l2 1-4 3-4-1-3-5z" fill="#958B82"/>
<path transform="translate(1048,678)" d="m0 0 5 1-1 3-5-1-2-1v2l7 1v1h-10l-1-2h-6v-2z" fill="#877F78"/>
<path transform="translate(597,512)" d="m0 0 7 1v2l2 2-4 4h-4l-1-2z" fill="#C9BFB6"/>
<path transform="translate(696,494)" d="m0 0 1 4-1 5v7l-2 1 2 2-4 1-1-3v-7z" fill="#E5D8CF"/>
<path transform="translate(638,486)" d="m0 0h7l-2 2 4 4v1h-6v9l-1 3-2-1 1-7z" fill="#E3D7CE"/>
<path transform="translate(1048,453)" d="m0 0 2 1 1 6-2 4-2 6h-1l-1-16z" fill="#CAC0B7"/>
<path transform="translate(1386,420)" d="m0 0 1 4h-2l-2 4-8 4h-9l3-2 14-6z" fill="#A79488"/>
<path transform="translate(868,823)" d="m0 0 5 2 6 1v2h-19l-1-2z" fill="#A63316"/>
<path transform="translate(283,779)" d="m0 0 3 1-12 6-10 12-1-2 6-9 8-6z" fill="#302D2B"/>
<path transform="translate(785,734)" d="m0 0h1l-1 15 4 1v7h-3l-2-4-1-12z" fill="#A6958A"/>
<path transform="translate(394,430)" d="m0 0 2 1-3 1 1 6v14l-2-4-1-1-1-13z" fill="#F9F8F7"/>
<path transform="translate(657,389)" d="m0 0h12v2l-12 2-9 6 2-5 5-4z" fill="#F4F2F0"/>
<path transform="translate(187,506)" d="m0 0 12 1 2 2h-13l-6 10-2 1 1-5z" fill="#191716"/>
<path transform="translate(242,728)" d="m0 0h21l8 1v1l5 1v1h-16l2-1v-2h-20z" fill="#9F9086"/>
<path transform="translate(1429,287)" d="m0 0 5 1 10 6 4 4-2 2-5-4v-2l-4-1-7-4z" fill="#6E6964"/>
<path transform="translate(250,733)" d="m0 0h13l-1 25-2 1-1-4 1-3v-16l-2-1-1 2v-3h-7z" fill="#2E2B29"/>
<path transform="translate(294,726)" d="m0 0h12l1 2-3 2h-9l-6-1 1-2z" fill="#A49287"/>
<path transform="translate(525,447)" d="m0 0h2l5 10 3 10v6l-2-4-4-13-4-3-1-4z" fill="#F7F5F3"/>
<path transform="translate(856,383)" d="m0 0 4 1h-2l-2 4-8 7-4 5 1-5 6-8z" fill="#F5F1EF"/>
<path transform="translate(1089,773)" d="m0 0 2 1-2 4-6 4-8 1 4-4 8-4z" fill="#615C59"/>
<path transform="translate(133,490)" d="m0 0h3l1 3-5 8-6 2 2-5z" fill="#8D8783"/>
<path transform="translate(208,509)" d="m0 0 23 2 1 3-19-2-5-1z" fill="#221F1E"/>
<path transform="translate(1037,434)" d="m0 0 6 1v13h-2l-4-13z" fill="#6C6764"/>
<path transform="translate(299,804)" d="m0 0h1v8l-4 8-5 4-6 1 4-2v-2l7-6 2-5z" fill="#B2A79E"/>
<path transform="translate(816,567)" d="m0 0v3l-7 9-7 7-7 5-2-1 11-9 9-10z" fill="#E7DED8"/>
<path transform="translate(858,798)" d="m0 0h2l-2 4-6 8-6 4-4 1h-11v-1l14-2 8-6z" fill="#A1958B"/>
<path transform="translate(249,738)" d="m0 0h1v7h5v4l-5 1 5 6-5-2-3-6h2z" fill="#4A4541"/>
<path transform="translate(493,415)" d="m0 0h8l-2 2-14 2h-9l2-2z" fill="#F6F3F1"/>
<path transform="translate(1395,407)" d="m0 0h7l-5 5-3 2-4-1 2-2h-4v-2z" fill="#847D76"/>
<path transform="translate(680,396)" d="m0 0 5 2 4 5v10l-2-2-4-10z" fill="#F6F5F3"/>
<path transform="translate(257,753)" d="m0 0h3l-1 12-3 3-1-1v-5l2-3-2-1z" fill="#423D3A"/>
<path transform="translate(254,756)" d="m0 0 1 2 3 1-2 3v5l7 3v-8h1v10l-7-1-3-3-1-10z" fill="#655E58"/>
<path transform="translate(247,730)" d="m0 0h15l-2 2-10 2h-7l1-3z" fill="#857D76"/>
<path transform="translate(422,714)" d="m0 0h8l-3 2-10 2h-8v-2l7-1z" fill="#A9988D"/>
<path transform="translate(604,513)" d="m0 0h2l2 5 12 3v1l-7 1-7-2-3-6z" fill="#DFD4CC"/>
<path transform="translate(240,511)" d="m0 0h27l3 2h-28l-3 1z" fill="#C9BFB6"/>
<path transform="translate(1074,730)" d="m0 0 3 1-9 6-10 13-1-2 6-9 9-8z" fill="#34312F"/>
<path transform="translate(125,520)" d="m0 0 1 2-9 14-3-1 7-11z" fill="#C5BBB2"/>
<path transform="translate(1009,444)" d="m0 0 2 2 1 4v7l-3 3h-1v-9z" fill="#584F4A"/>
<path transform="translate(793,760)" d="m0 0 5 2 3 3-1 3-4-4h-1v7h-2l-2-5v-5z" fill="#998E85"/>
<path transform="translate(526,409)" d="m0 0h11l-2 2-9 2h-7l3-3z" fill="#F8F6F5"/>
<path transform="translate(786,724)" d="m0 0h1l-1 10-2 7h-1v-16z" fill="#888079"/>
<path transform="translate(797,692)" d="m0 0 2 1-5 9-4 4-1-4 3-5z" fill="#736D69"/>
<path transform="translate(192,531)" d="m0 0 2 2-9 16-2-2 8-15z" fill="#5C534D"/>
<path transform="translate(417,455)" d="m0 0h2l-2 7-3 4-2 5h-1l1-8 3-7z" fill="#F5F3F1"/>
<path transform="translate(503,417)" d="m0 0 3 1-8 4-7-1-1-3z" fill="#272321"/>
<path transform="translate(1451,323)" d="m0 0h1v6h2l1 7-2 7h-1l-1-6z" fill="#443F3B"/>
<path transform="translate(774,599)" d="m0 0 3 1-3 5-4 3-2-1 1-2-2-1 4-4z" fill="#E4D8D0"/>
<path transform="translate(259,569)" d="m0 0h10v1l-5 1 4 2-13 1 2-4z" fill="#F7F4F1"/>
<path transform="translate(835,488)" d="m0 0 3 1 2 4v8l-1 2h-2z" fill="#E5D8CF"/>
<path transform="translate(497,424)" d="m0 0 5 3 4 2-8 1h-9l4-1v-2z" fill="#262321"/>
<path transform="translate(1379,34)" d="m0 0h2l-1 5-6 6h-2l2-6z" fill="#FEFEFE"/>
<path transform="translate(884,801)" d="m0 0 1 2-1 2-10 3-5 2 5-5 5-3z" fill="#A69387"/>
<path transform="translate(1e3 669)" d="m0 0 6 1h2l1 3 8 4-2 3h-2l-5-5-6-2z" fill="#1B1817"/>
<path transform="translate(284,524)" d="m0 0h2l2 11v6l-2 2-2-12z" fill="#D2C7BE"/>
<path transform="translate(908,502)" d="m0 0 2 3v3l3-4 2 1-4 7h-2l-1 6h-1v-9z" fill="#E5D9D1"/>
<path transform="translate(1124,414)" d="m0 0 5 1v10l-3-1-2-9z" fill="#6A6663"/>
<path transform="translate(843,749)" d="m0 0 7 2 1 4-5 2-3-4z" fill="#8C847C"/>
<path transform="translate(595,519)" d="m0 0h3v4l-10 2v2h-2l2-4z" fill="#E5D8CF"/>
<path transform="translate(274,516)" d="m0 0 5 2 4 5 1 3v8h-1l-1-9h-2l-4-6-2-1z" fill="#211E1C"/>
<path transform="translate(1048,462)" d="m0 0h1l-1 12-1 7-3-3v-7l3-1z" fill="#E0D6CE"/>
<path transform="translate(249,734)" d="m0 0 3 1 1 7h-2l1 3h-2l-2 3v-13z" fill="#2F2C2A"/>
<path transform="translate(711,514)" d="m0 0h2v14l-2 2-2-12z" fill="#DCD3CB"/>
<path transform="translate(183,507)" d="m0 0 1 4-7 13-2-1 2-5z" fill="#C1B7AE"/>
<path transform="translate(911,476)" d="m0 0 1 3 9-2-5 6-5 1z" fill="#E4D8CF"/>
<path transform="translate(201,510)" d="m0 0h7l-4 2-4 5-4 2 1-5z" fill="#46403C"/>
<path transform="translate(1006,450)" d="m0 0 2 1v6l-5 1-2-6h4z" fill="#9A8E85"/>
<path transform="translate(942,692)" d="m0 0h8l-1 2-16 3-3-1z" fill="#2B2725"/>
<path transform="translate(449,538)" d="m0 0h2v14l-3 1-1-12z" fill="#DED3CB"/>
<path transform="translate(855,746)" d="m0 0 2 4 1 5-6 5-3-1 5-2v-10z" fill="#5C534D"/>
<path transform="translate(897,640)" d="m0 0h5v2l-12 4h-2v-3z" fill="#4D4743"/>
<path transform="translate(1461,337)" d="m0 0 1 3-3 10h-4l3-9z" fill="#9B928A"/>
<path transform="translate(237,729)" d="m0 0h5l-4 2-2 3-8-1 2-3z" fill="#A79488"/>
<path transform="translate(1056,727)" d="m0 0 3 1-5 4-9 6-2-1z" fill="#2B2725"/>
<path transform="translate(288,542)" d="m0 0h1l2 9v7l-3-1-1-11z" fill="#C5BBB2"/>
<path transform="translate(702,485)" d="m0 0h11v2h-2l-1 2-7-1-4 1z" fill="#E4D7CE"/>
<path transform="translate(646,416)" d="m0 0 4 1v7h-2l-1 2-1-2z" fill="#2B2725"/>
<path transform="translate(1344,409)" d="m0 0h21v1l-6 2h-5l-1-1-9-1z" fill="#6A6663"/>
<path transform="translate(260,835)" d="m0 0 5 2 10 5v1h-7l-8-7z" fill="#433F3C"/>
<path transform="translate(814,790)" d="m0 0 4 3 4 7 3 4-4-1-7-10z" fill="#90867E"/>
<path transform="translate(813,695)" d="m0 0 3 1-6 3 1-3zm-6 4 3 1-5 6-3 1 2-5z" fill="#544C47"/>
<path transform="translate(1261,184)" d="m0 0h2l-2 5-7 10-1-3z" fill="#DBD2CB"/>
<path transform="translate(803,773)" d="m0 0 4 2 4 8v4l-4-5z" fill="#8D847C"/>
<path transform="translate(349,723)" d="m0 0 6 1-1 2-15 1v-2z" fill="#AD9F94"/>
<path transform="translate(649,499)" d="m0 0h1l1 7-1 11h-1l-2-8 1-5-1-4z" fill="#F3EAE4"/>
<path transform="translate(705,489)" d="m0 0 5 1v5h-6z" fill="#C9BFB6"/>
<path transform="translate(1e3 434)" d="m0 0 2 3-1 6-5-3 2-5z" fill="#696460"/>
<path transform="translate(872,379)" d="m0 0 2 2v18h-1l-2-19z" fill="#F7F4F3"/>
<path transform="translate(1398,417)" d="m0 0v3l-10 4 1-5 6-1z" fill="#A69387"/>
<path transform="translate(822,816)" d="m0 0 5 1 4 2-1 4-7-4z" fill="#A5988E"/>
<path transform="translate(1090,769)" d="m0 0 1 3-5 5-5 2-4-1 9-3 2-4z" fill="#3A3633"/>
<path transform="translate(1019,759)" d="m0 0h1l-1 9-4 6-1-2z" fill="#9D270B"/>
<path transform="translate(146,486)" d="m0 0 3 1-7 10-2-1 2-5z" fill="#BEB5AC"/>
<path transform="translate(1087,446)" d="m0 0 4 1 1 4-4 2-2-1z" fill="#E6DCD4"/>
<path transform="translate(1152,421)" d="m0 0 1 2h2l3 7-1 4-4-5z" fill="#625B56"/>
<path transform="translate(1045,476)" d="m0 0h1v9l-2 5h-1v-8z" fill="#F2EFEC"/>
<path transform="translate(975,439)" d="m0 0 4 1 1 2v6l-2-3h-3z" fill="#5B534D"/>
<path transform="translate(1270,392)" d="m0 0 2 3 2 6-2 2-3-4z" fill="#928880"/>
<path transform="translate(1333,377)" d="m0 0h3l-2 4-4 4-2-1 3-6z" fill="#C9BFB6"/>
<path transform="translate(274,807)" d="m0 0h1l1 10 5 5h-4l-3-3z" fill="#807973"/>
<path transform="translate(824,804)" d="m0 0h2l5 5v2l-7-1-2-2 3-1z" fill="#998E85"/>
<path transform="translate(297,796)" d="m0 0 3 3 1 2v8l-3 1v-10z" fill="#77716C"/>
<path transform="translate(257,775)" d="m0 0 4 3-2 4-3 2v-7z" fill="#5E5651"/>
<path transform="translate(258,735)" d="m0 0 3 1v16h-1l-1-11-1-1z" fill="#47413D"/>
<path transform="translate(1164,455)" d="m0 0h1v10l-2 2v-8h-2v-3z" fill="#EBE2DB"/>
<path transform="translate(764,605)" d="m0 0 2 1-1 4-4 3v-3l-2-2z" fill="#E5D8CF"/>
<path transform="translate(366,555)" d="m0 0h4v5l-5 1z" fill="#AAA19A"/>
<path transform="translate(119,523)" d="m0 0 2 1-2 5-4 4-1-3z" fill="#F3EDE9"/>
<path transform="translate(125,503)" d="m0 0 5 4-9 4 2-5z" fill="#948D88"/>
<path transform="translate(159,494)" d="m0 0 9 3 4 3-2 1-8-3v-2l-3-1z" fill="#252220"/>
</svg>
